<svg width="200" height="200" viewBox="0 0 200 200" version="1.1" xmlns="http://www.w3.org/2000/svg">
	<rect fill="#F9A606" x="0" y="0" width="200" height="200" />
	<path fill="#FFFFFF"
		d="M153.321125,85.2902335 L142.739384,85.2902335 C136.913482,69.1203822 121.248938,58.0333333 100.590764,58.0333333 L66.616242,58.0333333 L66.616242,85.2902335 L54.8158174,85.2902335 L54.8158174,95.0694268 L66.616242,95.0694268 L66.616242,105.324204 L54.8158174,105.324204 L54.8158174,115.103397 L66.616242,115.103397 L66.616242,142.033333 L100.590764,142.033333 C121.011146,142.033333 136.556794,131.035456 142.531316,115.103397 L153.321125,115.103397 L153.321125,105.324204 L144.909236,105.324204 C145.117304,103.600212 145.2362,101.816773 145.2362,100.033333 L145.2362,99.7955414 C145.2362,98.1904459 145.147028,96.6150743 144.998408,95.0694268 L153.350849,95.0694268 L153.350849,85.2902335 L153.321125,85.2902335 Z M76.1279193,66.7424628 L100.590764,66.7424628 C115.75,66.7424628 127.015393,74.2031847 132.217091,85.2605096 L76.1279193,85.2605096 L76.1279193,66.7424628 L76.1279193,66.7424628 Z M100.590764,133.235032 L76.1279193,133.235032 L76.1279193,115.073673 L132.157643,115.073673 C126.926221,125.952654 115.690552,133.235032 100.590764,133.235032 Z M135.397558,100.241401 C135.397558,101.965393 135.278662,103.65966 135.04087,105.29448 L76.1279193,105.29448 L76.1279193,95.0397028 L135.070594,95.0397028 C135.278662,96.6447983 135.397558,98.3093418 135.397558,100.003609 L135.397558,100.241401 Z" />
</svg>