<svg width="200" height="200" viewBox="0 0 200 200" version="1.1" xmlns="http://www.w3.org/2000/svg">
	<rect fill="#665B6B" x="0" y="0" width="200" height="200" />
	<path fill-opacity="0.8192685" fill="#190424"
		d="M38.0316667,101.445 L116.786667,101.445 L117.451667,97.645 L38.6966667,97.645 L38.0316667,101.445 Z M39.2666667,94.605 L118.021667,94.605 L118.591667,91.28 L39.8366667,91.28 L39.2666667,94.605 Z M62.7316667,108.285 L89.6166667,108.285 L92.9416667,104.105 L60.9266667,104.105 L62.7316667,108.285 Z M90.5666667,121.965 L113.176667,121.965 L114.031667,117.025 L91.4216667,117.025 L90.5666667,121.965 Z M34.4216667,121.965 L56.9366667,121.965 L57.7916667,117.025 L35.2766667,117.025 L34.4216667,121.965 Z M80.4016667,87.67 L119.161667,87.67 L119.731667,84.82 L82.6816667,84.82 L80.4016667,87.67 Z M40.4066667,87.67 L77.8366667,87.67 L76.5066667,84.82 L40.9766667,84.82 L40.4066667,87.67 Z M91.8016667,115.125 L114.411667,115.125 L115.171667,110.565 L92.5616667,110.565 L91.8016667,115.125 Z M35.6566667,115.125 L58.1716667,115.125 L58.9316667,110.565 L36.4166667,110.565 L35.6566667,115.125 Z M65.7716667,115.125 L84.2016667,115.125 L87.8116667,110.565 L63.7766667,110.565 L65.7716667,115.125 Z M92.9416667,108.285 L115.551667,108.285 L116.311667,104.105 L93.7016667,104.105 L92.9416667,108.285 Z M36.7966667,108.285 L59.3116667,108.285 L60.0716667,104.105 L37.5566667,104.105 L36.7966667,108.285 Z M85.9116667,80.83 L120.396667,80.83 L120.871667,78.36 L87.9066667,78.36 L85.9116667,80.83 Z M41.6416667,80.83 L74.6066667,80.83 L73.4666667,78.36 L42.1166667,78.36 L41.6416667,80.83 Z M112.321667,127 L112.891667,123.485 L90.2816667,123.485 L89.7116667,127 L112.321667,127 Z M56.0816667,127 L56.6516667,123.485 L34.1366667,123.485 L33.5666667,127 L56.0816667,127 Z M68.8116667,121.965 L78.7866667,121.965 L82.6816667,117.025 L66.6266667,117.025 L68.8116667,121.965 Z M91.4216667,73.99 L121.631667,73.99 L122.011667,71.9 L93.0366667,71.9 L91.4216667,73.99 Z M42.8766667,73.99 L71.4716667,73.99 L70.5216667,71.9 L43.2566667,71.9 L42.8766667,73.99 Z M96.8366667,67.15 L122.866667,67.15 L123.151667,65.44 L98.2616667,65.44 L96.8366667,67.15 Z M44.1116667,67.15 L68.3366667,67.15 L67.5766667,65.44 L44.3966667,65.44 L44.1116667,67.15 Z M71.0916667,127 L74.8916667,127 L77.6466667,123.485 L69.4766667,123.485 L71.0916667,127 Z M130.815,121.965 L153.33,121.965 L154.185,117.025 L131.67,117.025 L130.815,121.965 Z M132.05,115.125 L154.565,115.125 L155.325,110.565 L132.81,110.565 L132.05,115.125 Z M133.19,108.285 L155.705,108.285 L156.465,104.105 L133.95,104.105 L133.19,108.285 Z M134.425,101.445 L156.94,101.445 L157.605,97.645 L135.09,97.645 L134.425,101.445 Z M152.475,127 L153.045,123.485 L130.53,123.485 L129.96,127 L152.475,127 Z M135.565,94.605 L158.175,94.605 L158.745,91.28 L136.135,91.28 L135.565,94.605 Z M131.195,80.83 L160.55,80.83 L161.025,78.36 L131.67,78.36 L131.195,80.83 Z M136.8,87.67 L159.315,87.67 L159.885,84.82 L137.37,84.82 L136.8,87.67 Z M132.43,73.99 L161.785,73.99 L162.165,71.9 L132.81,71.9 L132.43,73.99 Z M133.665,67.15 L163.02,67.15 L163.305,65.44 L133.95,65.44 L133.665,67.15 Z" />
</svg>