<svg width="200" height="200" viewBox="0 0 200 200" version="1.1" xmlns="http://www.w3.org/2000/svg">
	<rect fill="#665B6B" x="0" y="0" width="200" height="200" />
	<path fill-opacity="0.8192685" fill="#190424"
		d="M100.974167,123.485 L100.404167,127 L77.7941667,127 L78.3641667,123.485 L100.974167,123.485 Z M44.7341667,123.485 L44.1641667,127 L21.6491667,127 L22.2191667,123.485 L44.7341667,123.485 Z M65.7291667,123.485 L62.9741667,127 L59.1741667,127 L57.5591667,123.485 L65.7291667,123.485 Z M160.3175,123.485 C158.6075,124.561667 156.85,125.416667 155.045,126.05 C153.24,126.683333 151.4825,127 149.7725,127 L149.7725,127 L111.2025,127 L111.7725,123.485 Z M102.114167,117.025 L101.259167,121.965 L78.6491667,121.965 L79.5041667,117.025 L102.114167,117.025 Z M45.8741667,117.025 L45.0191667,121.965 L22.5041667,121.965 L23.3591667,117.025 L45.8741667,117.025 Z M70.7641667,117.025 L66.8691667,121.965 L56.8941667,121.965 L54.7091667,117.025 L70.7641667,117.025 Z M167.5375,117.025 C166.7775,117.975 165.97,118.861667 165.115,119.685 C164.26,120.508333 163.389167,121.268333 162.5025,121.965 L162.5025,121.965 L112.0575,121.965 L113.0075,117.025 Z M103.254167,110.565 L102.494167,115.125 L79.8841667,115.125 L80.6441667,110.565 L103.254167,110.565 Z M47.0141667,110.565 L46.2541667,115.125 L23.7391667,115.125 L24.4991667,110.565 L47.0141667,110.565 Z M75.8941667,110.565 L72.2841667,115.125 L53.8541667,115.125 L51.8591667,110.565 L75.8941667,110.565 Z M171.3375,110.565 C171.020833,111.325 170.6725,112.100833 170.2925,112.8925 C169.9125,113.684167 169.469167,114.428333 168.9625,115.125 L168.9625,115.125 L113.2925,115.125 L114.1475,110.565 Z M81.0241667,104.105 L77.6991667,108.285 L50.8141667,108.285 L49.0091667,104.105 L81.0241667,104.105 Z M104.394167,104.105 L103.634167,108.285 L81.0241667,108.285 L81.7841667,104.105 L104.394167,104.105 Z M48.1541667,104.105 L47.3941667,108.285 L24.8791667,108.285 L25.6391667,104.105 L48.1541667,104.105 Z M172.2875,104.105 L172.2875,104.675 C172.2875,105.055 172.271667,105.450833 172.24,105.8625 C172.208333,106.274167 172.160833,106.67 172.0975,107.05 L172.0975,107.05 L171.9075,108.285 L146.2575,108.285 C147.2075,108.158333 147.888333,107.936667 148.3,107.62 C148.711667,107.303333 148.980833,106.86 149.1075,106.29 C149.170833,106.226667 149.2025,106.005 149.2025,105.625 C149.2025,105.118333 148.980833,104.754167 148.5375,104.5325 C148.094167,104.310833 147.334167,104.168333 146.2575,104.105 L146.2575,104.105 L172.2875,104.105 Z M105.534167,97.645 L104.869167,101.445 L26.1141667,101.445 L26.7791667,97.645 L105.534167,97.645 Z M170.5775,97.645 C171.1475,98.6583333 171.590833,99.925 171.9075,101.445 L171.9075,101.445 L118.1375,101.445 L118.8025,97.645 Z M106.674167,91.28 L106.104167,94.605 L27.3491667,94.605 L27.9191667,91.28 L106.674167,91.28 Z M173.2375,91.28 C172.4775,92.61 171.5275,93.7183333 170.3875,94.605 L170.3875,94.605 L119.2775,94.605 L119.8475,91.28 Z M107.814167,84.82 L107.244167,87.67 L68.4841667,87.67 L70.7641667,84.82 L107.814167,84.82 Z M64.5891667,84.82 L65.9191667,87.67 L28.4891667,87.67 L29.0591667,84.82 L64.5891667,84.82 Z M175.9925,84.82 L175.9925,85.01 C175.865833,85.5166667 175.739167,85.9758333 175.6125,86.3875 C175.485833,86.7991667 175.359167,87.2266667 175.2325,87.67 L175.2325,87.67 L151.0075,87.67 C151.5775,87.5433333 151.973333,87.3375 152.195,87.0525 C152.416667,86.7675 152.590833,86.4033333 152.7175,85.96 L152.7175,85.96 L152.8125,85.39 C152.8125,85.2633333 152.796667,85.1683333 152.765,85.105 C152.733333,85.0416667 152.7175,84.9466667 152.7175,84.82 L152.7175,84.82 L175.9925,84.82 Z M108.954167,78.36 L108.479167,80.83 L73.9941667,80.83 L75.9891667,78.36 L108.954167,78.36 Z M61.5491667,78.36 L62.6891667,80.83 L29.7241667,80.83 L30.1991667,78.36 L61.5491667,78.36 Z M175.9925,78.36 C176.119167,78.8033333 176.198333,79.2308333 176.23,79.6425 C176.261667,80.0541667 176.309167,80.45 176.3725,80.83 L176.3725,80.83 L119.2775,80.83 L119.7525,78.36 Z M58.6041667,71.9 L59.5541667,73.99 L30.9591667,73.99 L31.3391667,71.9 L58.6041667,71.9 Z M110.094167,71.9 L109.714167,73.99 L79.5041667,73.99 L81.1191667,71.9 L110.094167,71.9 Z M173.1425,71.9 C173.395833,72.2166667 173.6175,72.5491667 173.8075,72.8975 C173.9975,73.2458333 174.219167,73.61 174.4725,73.99 L174.4725,73.99 L120.5125,73.99 L120.8925,71.9 Z M111.234167,65.44 L110.949167,67.15 L84.9191667,67.15 L86.3441667,65.44 L111.234167,65.44 Z M55.6591667,65.44 L56.4191667,67.15 L32.1941667,67.15 L32.4791667,65.44 L55.6591667,65.44 Z M163.8325,65.44 C164.529167,65.63 165.241667,65.8675 165.97,66.1525 C166.698333,66.4375 167.379167,66.77 168.0125,67.15 L168.0125,67.15 L121.7475,67.15 L122.0325,65.44 Z" />
</svg>