<svg width="200" height="200" viewBox="0 0 200 200" version="1.1" xmlns="http://www.w3.org/2000/svg">
	<rect fill="#665B6B" x="0" y="0" width="200" height="200" />
	<path fill-opacity="0.8192685" fill="#190424"
		d="M26.02,102.79 L100.63,102.79 L101.26,99.19 L26.65,99.19 L26.02,102.79 Z M27.19,96.31 L101.8,96.31 L102.34,93.16 L27.73,93.16 L27.19,96.31 Z M49.42,109.27 L74.89,109.27 L78.04,105.31 L47.71,105.31 L49.42,109.27 Z M75.79,122.23 L97.21,122.23 L98.02,117.55 L76.6,117.55 L75.79,122.23 Z M22.6,122.23 L43.93,122.23 L44.74,117.55 L23.41,117.55 L22.6,122.23 Z M66.16,89.74 L102.88,89.74 L103.42,87.04 L68.32,87.04 L66.16,89.74 Z M28.27,89.74 L63.73,89.74 L62.47,87.04 L28.81,87.04 L28.27,89.74 Z M76.96,115.75 L98.38,115.75 L99.1,111.43 L77.68,111.43 L76.96,115.75 Z M23.77,115.75 L45.1,115.75 L45.82,111.43 L24.49,111.43 L23.77,115.75 Z M52.3,115.75 L69.76,115.75 L73.18,111.43 L50.41,111.43 L52.3,115.75 Z M78.04,109.27 L99.46,109.27 L100.18,105.31 L78.76,105.31 L78.04,109.27 Z M24.85,109.27 L46.18,109.27 L46.9,105.31 L25.57,105.31 L24.85,109.27 Z M71.38,83.26 L104.05,83.26 L104.5,80.92 L73.27,80.92 L71.38,83.26 Z M29.44,83.26 L60.67,83.26 L59.59,80.92 L29.89,80.92 L29.44,83.26 Z M96.4,127 L96.94,123.67 L75.52,123.67 L74.98,127 L96.4,127 Z M43.12,127 L43.66,123.67 L22.33,123.67 L21.79,127 L43.12,127 Z M55.18,122.23 L64.63,122.23 L68.32,117.55 L53.11,117.55 L55.18,122.23 Z M76.6,76.78 L105.22,76.78 L105.58,74.8 L78.13,74.8 L76.6,76.78 Z M30.61,76.78 L57.7,76.78 L56.8,74.8 L30.97,74.8 L30.61,76.78 Z M81.73,70.3 L106.39,70.3 L106.66,68.68 L83.08,68.68 L81.73,70.3 Z M31.78,70.3 L54.73,70.3 L54.01,68.68 L32.05,68.68 L31.78,70.3 Z M57.34,127 L60.94,127 L63.55,123.67 L55.81,123.67 L57.34,127 Z M110.86,102.79 L172.69,102.79 L173.32,99.19 L111.49,99.19 L110.86,102.79 Z M111.94,96.31 L173.86,96.31 L174.4,93.16 L112.48,93.16 L111.94,96.31 Z M134.53,89.56 L134.98,87.04 L113.65,87.04 L113.11,89.74 L174.94,89.74 L175.48,87.04 L154.15,87.04 L153.7,89.56 L134.53,89.56 Z M147.94,122.23 L169.27,122.23 L170.08,117.55 L148.75,117.55 L147.94,122.23 Z M149.11,115.75 L170.44,115.75 L171.16,111.43 L149.83,111.43 L149.11,115.75 Z M150.19,109.27 L171.52,109.27 L172.24,105.31 L110.41,105.31 L110.41,105.4 L150.91,105.4 L150.19,109.27 Z M147.13,127 L168.46,127 L169,123.67 L147.67,123.67 L147.13,127 Z M154.78,83.26 L176.11,83.26 L176.56,80.92 L155.23,80.92 L154.78,83.26 Z M114.28,83.26 L135.61,83.26 L136.06,80.92 L114.73,80.92 L114.28,83.26 Z M115.45,76.78 L136.78,76.78 L137.14,74.8 L115.81,74.8 L115.45,76.78 Z M155.95,76.78 L177.28,76.78 L177.64,74.8 L156.31,74.8 L155.95,76.78 Z M116.62,70.3 L137.95,70.3 L138.22,68.68 L116.89,68.68 L116.62,70.3 Z M157.12,70.3 L178.45,70.3 L178.72,68.68 L157.39,68.68 L157.12,70.3 Z" />
</svg>