<svg width="200" height="200" viewBox="0 0 200 200" version="1.1" xmlns="http://www.w3.org/2000/svg">
	<rect fill="#665B6B" x="0" y="0" width="200" height="200" />
	<path fill-opacity="0.8192685" fill="#190424"
		d="M24.4091667,101.445 L103.164167,101.445 L103.829167,97.645 L25.0741667,97.645 L24.4091667,101.445 Z M25.6441667,94.605 L104.399167,94.605 L104.969167,91.28 L26.2141667,91.28 L25.6441667,94.605 Z M49.1091667,108.285 L75.9941667,108.285 L79.3191667,104.105 L47.3041667,104.105 L49.1091667,108.285 Z M76.9441667,121.965 L99.5541667,121.965 L100.409167,117.025 L77.7991667,117.025 L76.9441667,121.965 Z M20.7991667,121.965 L43.3141667,121.965 L44.1691667,117.025 L21.6541667,117.025 L20.7991667,121.965 Z M66.7791667,87.67 L105.539167,87.67 L106.109167,84.82 L69.0591667,84.82 L66.7791667,87.67 Z M26.7841667,87.67 L64.2141667,87.67 L62.8841667,84.82 L27.3541667,84.82 L26.7841667,87.67 Z M78.1791667,115.125 L100.789167,115.125 L101.549167,110.565 L78.9391667,110.565 L78.1791667,115.125 Z M22.0341667,115.125 L44.5491667,115.125 L45.3091667,110.565 L22.7941667,110.565 L22.0341667,115.125 Z M52.1491667,115.125 L70.5791667,115.125 L74.1891667,110.565 L50.1541667,110.565 L52.1491667,115.125 Z M79.3191667,108.285 L101.929167,108.285 L102.689167,104.105 L80.0791667,104.105 L79.3191667,108.285 Z M23.1741667,108.285 L45.6891667,108.285 L46.4491667,104.105 L23.9341667,104.105 L23.1741667,108.285 Z M72.2891667,80.83 L106.774167,80.83 L107.249167,78.36 L74.2841667,78.36 L72.2891667,80.83 Z M28.0191667,80.83 L60.9841667,80.83 L59.8441667,78.36 L28.4941667,78.36 L28.0191667,80.83 Z M98.6991667,127 L99.2691667,123.485 L76.6591667,123.485 L76.0891667,127 L98.6991667,127 Z M42.4591667,127 L43.0291667,123.485 L20.5141667,123.485 L19.9441667,127 L42.4591667,127 Z M55.1891667,121.965 L65.1641667,121.965 L69.0591667,117.025 L53.0041667,117.025 L55.1891667,121.965 Z M77.7991667,73.99 L108.009167,73.99 L108.389167,71.9 L79.4141667,71.9 L77.7991667,73.99 Z M29.2541667,73.99 L57.8491667,73.99 L56.8991667,71.9 L29.6341667,71.9 L29.2541667,73.99 Z M83.2141667,67.15 L109.244167,67.15 L109.529167,65.44 L84.6391667,65.44 L83.2141667,67.15 Z M30.4891667,67.15 L54.7141667,67.15 L53.9541667,65.44 L30.7741667,65.44 L30.4891667,67.15 Z M57.4691667,127 L61.2691667,127 L64.0241667,123.485 L55.8541667,123.485 L57.4691667,127 Z M119.4725,121.965 L174.9525,121.965 L175.9025,117.025 L118.4275,117.025 C118.4275,118.608333 118.775833,120.255 119.4725,121.965 Z M118.6175,114.365 C118.554167,114.428333 118.5225,114.555 118.5225,114.745 C118.5225,114.935 118.490833,115.061667 118.4275,115.125 L176.1875,115.125 L177.0425,110.565 L119.6625,110.565 C119.409167,111.198333 119.203333,111.815833 119.045,112.4175 C118.886667,113.019167 118.744167,113.668333 118.6175,114.365 Z M174.0975,127 L174.6675,123.485 L120.4225,123.485 C122.195833,125.828333 124.950833,127 128.6875,127 L174.0975,127 Z M172.1975,79.31 C172.1975,79.31 172.260833,78.9933333 172.3875,78.36 L118.0475,78.36 L117.5725,80.83 L171.8175,80.83 C171.880833,80.5766667 171.928333,80.3391667 171.96,80.1175 C171.991667,79.8958333 172.070833,79.6266667 172.1975,79.31 Z M151.4875,104.105 L123.1775,104.105 C122.670833,104.801667 122.211667,105.498333 121.8,106.195 C121.388333,106.891667 120.9925,107.588333 120.6125,108.285 L146.7375,108.285 C147.4975,107.588333 148.273333,106.891667 149.065,106.195 C149.856667,105.498333 150.664167,104.801667 151.4875,104.105 Z M158.8975,97.645 L128.5925,97.645 C127.959167,98.2783333 127.3575,98.9116667 126.7875,99.545 C126.2175,100.178333 125.679167,100.811667 125.1725,101.445 L154.6225,101.445 C155.319167,100.811667 156.031667,100.194167 156.76,99.5925 C157.488333,98.9908333 158.200833,98.3416667 158.8975,97.645 Z M171.5325,71.9 L119.1875,71.9 L118.8075,73.99 L172.1975,73.99 C172.070833,73.6733333 171.96,73.325 171.865,72.945 C171.77,72.565 171.659167,72.2166667 171.5325,71.9 Z M165.1675,91.28 L135.4325,91.28 C134.799167,91.85 134.181667,92.42 133.58,92.99 C132.978333,93.56 132.3925,94.0983333 131.8225,94.605 L162.0325,94.605 C162.6025,94.0983333 163.140833,93.56 163.6475,92.99 C164.154167,92.42 164.660833,91.85 165.1675,91.28 Z M169.9175,84.82 L142.7475,84.82 C142.240833,85.3266667 141.7025,85.8016667 141.1325,86.245 C140.5625,86.6883333 140.024167,87.1633333 139.5175,87.67 L168.1125,87.67 C168.429167,87.1633333 168.73,86.6883333 169.015,86.245 C169.3,85.8016667 169.600833,85.3266667 169.9175,84.82 Z M163.9325,65.44 L120.3275,65.44 L120.0425,67.15 L167.7325,67.15 C166.5925,66.39 165.325833,65.82 163.9325,65.44 Z" />
</svg>