<svg width="200" height="200" viewBox="0 0 200 200" version="1.1" xmlns="http://www.w3.org/2000/svg">
	<rect fill="#FFFFFF" x="0" y="0" width="200" height="200" />
	<path fill="#141414"
		d="M100,57 C123.748244,57 143,76.2517558 143,100 C143,123.748244 123.748244,143 100,143 C76.2517558,143 57,123.748244 57,100 C57,76.2517558 76.2517558,57 100,57 Z M73.71625,81.3165 C64.6009345,94.1437313 66.0739841,111.676679 77.201797,122.803162 C88.3296098,133.929645 105.862733,135.400599 118.688875,126.28375 L118.682,126.288 Z M122.812668,77.1927067 C111.682471,66.0625095 94.143475,64.5931314 81.3165,73.71625 L81.3165,73.71625 L126.289125,118.6835 C135.412244,105.8619 133.942866,88.322904 122.812668,77.1927067 Z" />
</svg>