<svg width="200" height="200" viewBox="0 0 200 200" version="1.1" xmlns="http://www.w3.org/2000/svg">
	<rect fill="#2775CA" x="0" y="0" width="200" height="200" />
	<path fill="#FFFFFF"
		d="M113.497385,53.4836904 C113.768628,52.3967629 114.855555,51.8536251 115.942483,52.3967629 C130.884314,57.2869589 142.838561,68.9693112 147.728757,84.4549319 C155.879084,110.264082 141.751633,137.70395 115.942483,145.854277 C115.670588,146.12552 115.12745,146.12552 114.855555,146.12552 C113.768628,145.854277 113.22549,145.039244 113.22549,143.952317 L113.22549,143.952317 L113.22549,140.149048 C113.22549,138.790226 113.768628,137.975193 114.855555,137.432056 C125.994118,133.356892 134.959477,124.663428 139.03464,113.25297 C146.913724,92.3333637 136.046405,68.6974163 114.855555,61.0908794 C114.040523,60.5470896 113.22549,59.460814 113.22549,58.3738865 L113.22549,58.3738865 L113.225762,54.4153843 C113.228209,53.9725731 113.252679,53.7283958 113.497385,53.4836904 Z M87.1444444,52.12552 C88.231372,52.3967629 88.7745097,53.2117955 88.7745097,54.2987231 L88.7745097,54.2987231 L88.7745097,58.1019916 C88.7745097,59.460814 88.231372,60.2758467 87.1444444,60.8189845 C76.0058819,64.8941478 67.0405225,73.5876123 62.9653592,84.9980697 C55.0862753,105.917676 65.953595,129.553624 87.1444444,137.160161 C87.9594771,137.70395 88.7745097,138.790226 88.7745097,139.605259 L88.7745097,139.605259 L88.7745097,143.409179 C88.7745097,143.952317 88.7745097,144.224212 88.5026148,144.495455 C88.231372,145.582382 87.1444444,146.12552 86.0575168,145.582382 C70.843791,140.692186 59.1614387,129.009834 54.2712427,113.796108 C46.120916,87.9869575 60.2483663,60.5470896 86.0575168,52.3967629 C86.3294117,52.12552 86.8725495,52.12552 87.1444444,52.12552 Z M102.90196,66.2523183 C104.26013,66.5242132 105.075163,67.3392458 105.075163,68.4261734 L105.075163,68.4261734 L105.075163,74.9464348 C111.32353,75.4895725 116.213726,80.1078737 117.300653,86.0849973 L117.300653,86.0849973 L117.300653,86.3568922 C117.300653,87.4431677 116.485621,88.2582004 115.398693,88.2582004 L115.398693,88.2582004 L111.052287,88.2582004 C110.237254,88.2582004 109.422221,87.7150626 109.150327,86.9000299 C107.792156,82.8248666 105.075163,81.1948012 100.184967,81.1948012 C94.7516333,81.1948012 92.0346404,83.6392472 92.0346404,87.4431677 C92.0346404,91.2470882 93.6647058,93.4202913 101.815032,94.5072189 C113.22549,95.8653893 118.930719,99.12552 118.930719,108.634017 C118.930719,115.969311 113.497385,121.67454 105.347058,123.033362 L105.347058,123.033362 L105.347058,129.553624 C105.075163,130.911794 104.26013,131.726827 103.173203,131.726827 L103.173203,131.726827 L99.0980396,131.726827 C97.7398691,131.454932 96.9248365,130.639899 96.9248365,129.553624 L96.9248365,129.553624 L96.9248365,123.033362 C87.9594771,121.67454 83.6124188,116.784344 82.5261433,109.99284 L82.5261433,109.99284 L82.5261433,109.720945 C82.5261433,108.634017 83.3411759,107.818984 84.4274515,107.818984 L84.4274515,107.818984 L89.0464046,107.818984 C89.8614373,107.818984 90.67647,108.362774 90.9477129,109.44905 C91.7627455,113.524213 94.2078435,116.513101 101.271895,116.513101 C106.433334,116.513101 110.237254,113.524865 110.237254,109.177807 C110.237254,104.830749 107.792156,103.200683 100.184967,101.842513 C88.7745097,100.48369 83.3411759,96.9523169 83.3411759,87.9869575 C83.3411759,81.1948012 88.5026148,75.7614674 96.6529416,74.6745399 L96.6529416,74.6745399 L96.6529416,68.4261734 C96.9248365,67.0673509 97.7398691,66.2523183 98.8267967,66.2523183 L98.8267967,66.2523183 Z" />
</svg>