<svg width="200" height="200" viewBox="0 0 200 200" version="1.1" xmlns="http://www.w3.org/2000/svg">
	<rect fill="#50AF95" fill-rule="nonzero" x="0" y="0" width="200" height="200" />
	<path fill="#FFFFFF"
		d="M109.83193,102.226722 L109.83193,102.226722 C109.338433,102.263734 106.788697,102.415896 101.101143,102.415896 C96.5774189,102.415896 93.365575,102.280184 92.2387565,102.226722 L92.2387565,102.226722 C74.75662,101.457689 61.707733,98.4144566 61.707733,94.7708027 C61.707733,91.1271487 74.75662,88.0880288 92.2387565,87.3066583 L92.2387565,99.1958271 C93.3820249,99.2780766 96.6555559,99.471363 101.17928,99.471363 C106.607748,99.471363 109.326095,99.2451768 109.81548,99.1999396 L109.81548,87.3148833 C127.260604,88.0921413 140.280704,91.1353737 140.280704,94.7708027 C140.280704,98.4062316 127.264716,101.449464 109.81548,102.22261 L109.81548,102.22261 L109.83193,102.226722 Z M109.83193,86.0852529 L109.83193,75.4462769 L134.177789,75.4462769 L134.177789,59.2225582 L67.8928972,59.2225582 L67.8928972,75.4462769 L92.234644,75.4462769 L92.234644,86.0811404 C72.4495209,86.9899976 57.5705819,90.9091875 57.5705819,95.6056353 C57.5705819,100.302083 72.4495209,104.217161 92.234644,105.13013 L92.234644,139.222558 L109.827817,139.222558 L109.827817,105.117793 C129.567703,104.208936 144.421967,100.293858 144.421967,95.6015229 C144.421967,90.9091875 129.580041,86.9941101 109.827817,86.0811404 L109.827817,86.0811404 L109.83193,86.0852529 Z" />
</svg>