<svg width="200" height="200" viewBox="0 0 200 200" version="1.1" xmlns="http://www.w3.org/2000/svg">
    <rect fill="#FFFFFF" x="0" y="0" width="200" height="200" />
    <path fill="#5A5564"
        d="M124.648543,127.031666 L127.289766,129.612666 C112.038852,143.672874 88.6319115,143.813476 73.2178769,130.034472 L72.7532481,129.612666 L75.3342475,127.031666 C89.2940514,139.797002 110.688739,139.797002 124.648543,127.031666 Z M70.3701253,72.7790581 L72.9511247,75.3600575 C60.2015153,89.3160663 60.2015153,110.692535 72.9511247,124.648543 L72.9511247,124.648543 L70.3701253,127.315576 C56.1678948,111.910612 56.1678948,88.1840219 70.3701253,72.7790581 L70.3701253,72.7790581 Z M129.647079,72.6672148 C143.707287,87.9181289 143.847889,111.325069 130.068885,126.739104 L129.647079,127.203733 L127.066079,124.622733 C139.703762,110.802527 139.830139,89.6953917 127.44521,75.7294473 L127.066079,75.3084375 L129.647079,72.7274381 L129.647079,72.6672148 Z M126.799327,69.9483191 L127.263956,70.3701253 L124.682957,72.9511247 C110.862751,60.3134418 89.755615,60.187065 75.7896706,72.5719942 L75.3686609,72.9511247 L72.7274381,70.3701253 C87.9783523,56.3099171 111.385293,56.169315 126.799327,69.9483191 Z" />
    <path fill="#F09242"
        d="M116.294709,91.388064 C115.778509,86.0023785 111.13271,84.1956789 105.256634,83.6450657 L105.256634,76.228994 L100.714075,76.228994 L100.714075,83.5074124 C99.5182122,83.5074124 98.2965391,83.5074124 97.0834694,83.5074124 L97.0834694,76.228994 L92.5753237,76.228994 L92.5753237,83.6966857 L83.3611558,83.6966857 L83.3611558,88.557568 C83.3611558,88.557568 86.716455,88.4973446 86.664835,88.557568 C87.9223071,88.4192331 89.0634303,89.3017017 89.2458345,90.5535409 L89.2458345,110.995056 C89.2197198,111.424181 89.021117,111.82449 88.6952213,112.104886 C88.3753924,112.390674 87.9528108,112.533606 87.5251682,112.500639 C87.5853915,112.552259 84.2214889,112.500639 84.2214889,112.500639 L83.3611558,117.929341 L92.4892904,117.929341 L92.4892904,125.51748 L97.0318494,125.51748 L97.0318494,118.041185 L100.662455,118.041185 L100.662455,125.483066 L105.213618,125.483066 L105.213618,117.980961 C112.887789,117.516382 118.239061,115.623649 118.910121,108.439867 C119.452131,102.658428 116.733478,100.077429 112.388796,99.0364257 C115.030019,97.7373226 116.664652,95.3283898 116.294709,91.388064 Z M109.928243,107.54512 C109.928243,113.188906 100.258099,112.543656 97.1781061,112.543656 L97.1781061,102.529378 C100.258099,102.537982 109.928243,101.651838 109.928243,107.54512 Z M107.820427,93.4356569 C107.820427,98.5976557 99.7505022,97.9696126 97.1867094,97.9696126 L97.1867094,88.8672879 C99.7505022,88.8672879 107.820427,88.0585747 107.820427,93.4356569 Z" />
    <path fill="#282138"
        d="M99.9913954,147 C74.0362529,146.995247 52.9984162,125.952274 53,99.9971315 C53.0015838,74.0419886 74.0419886,53.0015838 99.9971315,53 C125.952274,52.9984162 146.995247,74.0362529 147,99.9913954 C147.002281,112.459552 142.050336,124.4177 133.234018,133.234018 C124.4177,142.050336 112.459552,147.002281 99.9913954,147 Z M99.9913954,56.6650046 C76.0791302,56.6840208 56.7071461,76.0791086 56.7166417,99.9913795 C56.7261442,123.90365 76.1135314,143.283346 100.025804,143.283346 C123.938077,143.283346 143.325471,123.903666 143.334983,99.9913954 C143.33955,88.4961432 138.773925,77.4706453 130.64394,69.3438877 C122.513955,61.2171302 111.486645,56.6558833 99.9913954,56.6650046 Z" />
</svg>