<svg width="200" height="200" viewBox="0 0 26 26" version="1.1" xmlns="http://www.w3.org/2000/svg">
    <defs>
        <linearGradient id="gradient-token-obsidian-aave-a" x1="25" y2="25" gradientUnits="userSpaceOnUse">
            <stop offset="0" stop-color="#b6509e" />
            <stop offset="1" stop-color="#2ebac6" />
        </linearGradient>
        <linearGradient id="gradient-token-obsidian-aave-b" href="#gradient-token-obsidian-aave-a" x1="20" y1="10"
            x2="10" y2="20" />
    </defs>
    <path fill="url(#gradient-token-obsidian-aave-b)"
        d="M6.973,20.991a1.036,1.036,0,0,1-.8-.313,1.156,1.156,0,0,1-.294-.8,1.243,1.243,0,0,1,.073-.408l2.15-5.2H7.34a1.088,1.088,0,0,1,0-2.176H9.016l2.292-5.549a1.56,1.56,0,0,1,1.455-1.071h.472a1.558,1.558,0,0,1,1.454,1.068l5.343,12.917a1,1,0,0,1,.075.415,1.135,1.135,0,0,1-.294.8,1.045,1.045,0,0,1-.8.313,1.091,1.091,0,0,1-.624-.208,1.286,1.286,0,0,1-.421-.53L13,7.892l-1.68,4.185h.719a1.094,1.094,0,0,1,0,2.188H10.429l-2.411,5.98a1.3,1.3,0,0,1-.428.541A1.071,1.071,0,0,1,6.973,20.991Zm.367-8.648a.838.838,0,0,0,0,1.676H8.472l-2.29,5.535a.968.968,0,0,0-.057.319.9.9,0,0,0,.229.636.793.793,0,0,0,.616.232.819.819,0,0,0,.474-.158,1.056,1.056,0,0,0,.345-.439l2.471-6.129h1.779a.844.844,0,0,0,0-1.688H10.95L13,7.221l5.2,12.926a1.05,1.05,0,0,0,.337.429.841.841,0,0,0,.481.161.794.794,0,0,0,.615-.233.886.886,0,0,0,.227-.635.747.747,0,0,0-.055-.313v0L14.459,6.64a1.309,1.309,0,0,0-1.224-.917h-.472a1.312,1.312,0,0,0-1.225.92l-2.355,5.7Z" />
</svg>