<?xml version="1.0" encoding="UTF-8"?>
<svg clip-rule="evenodd" fill-rule="evenodd" image-rendering="optimizeQuality" shape-rendering="geometricPrecision" text-rendering="geometricPrecision" version="1.1" viewBox="0 0 200 200" xml:space="preserve" xmlns="http://www.w3.org/2000/svg">
  <defs>
    <style>
      .fil16{fill:#000}.fil13{fill:#fff}.fil8{fill:#ab6c00}.fil0,.fil3,.fil8{fill-rule:nonzero}.fil3{fill:#f29e00}.fil0{fill:#fdb800}.fil1{fill:#fdfef7}.fil1,.fil10,.fil5{fill-rule:nonzero}.fil10{fill:#febe01}.fil5{fill:#fefffe}
    </style>
  </defs>
  <g transform="matrix(.088256 0 0 .088464 21.461 16.223)">
    <path class="fil0" d="m829.4 0.34c79.54-2.11 157.27 5.44 234.53 24.59l52.11 14.03c22.8 7.33 44.5 16.45 66.6 25.55 45.98 18.92 89.73 40.69 131.34 68.09 38.13 25.11 74.51 53.55 108.89 83.56l22.93 21.52c25.99 23.51 48.07 50.33 69.97 77.52 30.21 37.51 57.64 77.77 80.52 120.22 17.51 32.48 32 66.5 45.28 100.87 17.03 44.08 31 88.96 40.48 135.32 9.62 47.04 14.49 95.33 16.75 143.25 2.12 44.53-0.17 88.87-4.85 133.15-8.99 85.06-29.67 168.58-64.63 246.82-19.67 44.02-43.91 86.17-70.4 126.38-25.05 38.02-52.85 75.37-83.97 108.69-40.54 43.4-87.2 84.19-136.36 117.6-137.78 93.66-303.12 141.23-468.8 147.82l-2.62 0.1c-23.03 0.71-45.51-0.83-68.46-2.21l-31.83-1.57c-185.75-18.45-366.23-96.21-503.11-223.67-80.49-74.96-147.42-166.4-190.31-267.87-2.54-6.01-5.96-11.65-8.4-17.7-6.93-17.2-12.52-35.47-18.34-53.1-6.07-18.38-12.67-36.94-17.4-55.72-17.42-69.27-26.44-142.67-28.91-213.98-1.83-52.68 2.57-104.78 11.13-156.75 26.43-160.36 97.75-312.88 209.05-432.04 80.59-86.28 178.43-156.23 286.93-202.98 26.14-11.26 53.34-20.64 80.46-29.19 25.67-8.1 51.08-15.49 77.49-20.93 53.8-11.09 109.13-15.46 163.93-17.36z"/>
    <path class="fil1" d="m836.48 48.54h26.48l4.25 1.47-53.21 0.6-0.09-1.34c5.96 0.06 17.34 1.65 22.57-0.72z"/>
    <path d="m829.99 24.81c77.24-2.05 152.73 5.28 227.76 23.88l50.61 13.62c22.15 7.12 43.21 15.98 64.68 24.81 44.65 18.37 87.14 39.51 127.55 66.12 37.02 24.38 72.36 52 105.75 81.15l22.27 20.9c25.23 22.84 46.69 48.88 67.95 75.28 29.34 36.43 55.97 75.52 78.2 116.75 17.01 31.55 31.08 64.58 43.97 97.96 16.54 42.81 30.1 86.39 39.31 131.41 9.34 45.69 14.07 92.58 16.27 139.11 2.06 43.24-0.17 86.31-4.71 129.31-8.73 82.61-28.81 163.71-62.77 239.7-19.1 42.75-42.65 83.69-68.36 122.73-24.32 36.93-51.33 73.2-81.55 105.55-39.37 42.15-84.69 81.76-132.43 114.21-133.8 90.96-294.37 137.15-455.27 143.55l-2.54 0.1c-22.36 0.69-44.2-0.8-66.49-2.15l-30.91-1.53c-180.39-17.92-355.66-93.43-488.59-217.21-78.17-72.79-143.16-161.59-184.82-260.14-2.47-5.84-5.79-11.31-8.16-17.19-6.73-16.71-12.16-34.44-17.81-51.57-5.89-17.85-12.31-35.87-16.89-54.11-16.92-67.27-25.67-138.55-28.08-207.8-1.77-51.16 2.49-101.76 10.81-152.23 25.67-155.73 94.93-303.84 203.02-419.57 78.26-83.79 173.28-151.72 278.65-197.12 25.39-10.94 51.8-20.05 78.14-28.35 24.93-7.86 49.6-15.04 75.25-20.33 52.24-10.77 105.98-15.01 159.2-16.86z" fill-rule="nonzero"/>
    <path class="fil3" d="m695.63 837.9c-5.86-9.11-15.58-20.25-22.86-28.27 8.4 4.3 16.9 10.91 24.94 16.04-0.3 5.23 0.39 8.04-2.08 12.23zm307.84 0c5.86-9.11 15.58-20.25 22.86-28.27-8.4 4.3-16.9 10.91-24.94 16.04 0.3 5.23-0.39 8.04 2.08 12.23z"/>
    <path d="m697.71 825.66 45.27 20.98c-7.59 2.48-22.4-3.99-29.44-6.98-7.4-3.14-12.94-6.45-15.99-11.2zm303.68 0-45.27 20.98c7.59 2.48 22.4-3.99 29.44-6.98 7.4-3.14 12.94-6.45 15.99-11.2z" fill="#fdf9d2" fill-rule="nonzero"/>
    <path class="fil5" d="m505.19 1090.5 0.29 0.74c-23.23 28.53-56.94 47.14-89.93 62.13l-0.13-1.05zm688.72 0-0.29 0.74c23.23 28.53 56.94 47.14 89.93 62.13l0.13-1.05z"/>
    <path d="m666.7 749.59c14.6 1.44 42.76 1.7 55.85 10.49-1.99 0.87-4.08 1.64-5.95 2.75-3.67 2.18-8.26 0.59-12.31 0.62l-13.3-0.92c-5.24-1.62-12.33-0.82-17.75-0.63zm365.7 0c-14.6 1.44-42.76 1.7-55.85 10.49 1.99 0.87 4.08 1.64 5.95 2.75 3.67 2.18 8.26 0.59 12.31 0.62l13.3-0.92c5.24-1.62 12.33-0.82 17.75-0.63z" fill="#ce8e00" fill-rule="nonzero"/>
    <path class="fil5" d="m740.76 742.89-97.98-16.8c57.02-25.74 58.39-11.67 97.98 16.8zm217.59 0 97.98-16.8c-57.02-25.74-58.39-11.67-97.98 16.8z"/>
    <path class="fil1" d="m419.62 1170.6c0.58 2.93-0.71 4.63-2.34 7.12-2.66 4.07-5.79 8.09-9.44 11.31-18.67 16.46-43.88 28.34-66.42 38.61-4.97 2.27-9.69 5.33-14.7 7.39-6.48 2.67-13.99 4.75-20.87 6.13l-5.61 0.59c-1.19 0.06-0.69-0.05-1.68 0.33l-0.91 0.06-6.3-4.02c54.51-17.63 82.98-35.64 128.25-67.52zm859.86 0c-0.58 2.93 0.71 4.63 2.34 7.12 2.66 4.07 5.79 8.09 9.44 11.31 18.67 16.46 43.88 28.34 66.42 38.61 4.97 2.27 9.69 5.33 14.7 7.39 6.48 2.67 13.99 4.75 20.87 6.13l5.61 0.59c1.19 0.06 0.69-0.05 1.68 0.33l0.91 0.06 6.3-4.02c-54.51-17.63-82.98-35.64-128.25-67.52z"/>
    <path d="m722.55 760.09c6.81 4.38 14.37 8.55 20.61 13.67 12.03 9.86 20.03 23.12 26.19 37.27-17.57-2.26-35.67 0.62-53.15-2.47-15.38-2.72-29.65-12.19-38.48-25.08-4.25-6.2-14.35-28.53-13.15-34.84l2.14 0.96c2.18 4.1 4.36 8.21 6.54 12.31 18.96-5.17 33.06-3.93 49.31-1.82zm254 0c-6.81 4.38-14.37 8.55-20.61 13.67-12.03 9.86-20.03 23.12-26.19 37.27 17.57-2.26 35.67 0.62 53.15-2.47 15.38-2.72 29.65-12.19 38.48-25.08 4.25-6.2 14.35-28.53 13.15-34.84l-2.14 0.96c-2.18 4.1-4.36 8.21-6.54 12.31-18.96-5.17-33.06-3.93-49.31-1.82z" fill="#fed307" fill-rule="nonzero"/>
    <path class="fil8" d="m749.67 948.97c-16.99-27.3-60.01-60.21-42.31-99.12 16.61 21.27 53.68 68.65 42.31 99.12zm199.76 0c16.99-27.3 60.01-60.21 42.31-99.12-16.61 21.27-53.68 68.65-42.31 99.12z"/>
    <path class="fil0" d="m796.12 509.46c15.18-7.81 35.29-12.08 53.43-12.09v227.23c-25.37-2.51-40.25-30.47-43.61-38.89-1.26-3.64-1.24-8.29-1.71-12.12-5.18-56.1-6.55-108-8.11-164.14zm106.86 0c-15.18-7.81-35.29-12.08-53.43-12.09v227.23c25.37-2.51 40.25-30.47 43.61-38.89 1.26-3.64 1.24-8.29 1.71-12.12 5.18-56.1 6.55-108 8.11-164.14z"/>
    <path d="m750.92 781.92c-26.96 45.91-76.58 2.27-75.1-18.58 37.02-5.84 64.28 6.22 75.1 18.58zm197.26 0c26.96 45.91 76.58 2.27 75.1-18.58-37.02-5.84-64.28 6.22-75.1 18.58z" fill="#ffe40a" fill-rule="nonzero"/>
    <path class="fil5" d="m733.41 771.09c-0.07 4.77-4.32 11.04-8.69 12.69-9.24-0.08-18.28-9.13-18.54-17.7 9.7-4.08 19.09 0.04 27.24 5.01zm232.28 0c0.07 4.77 4.32 11.04 8.69 12.69 9.24-0.08 18.28-9.13 18.54-17.7-9.7-4.08-19.09 0.04-27.24 5.01z"/>
    <path class="fil1" d="m777.48 1116.6c-1-1.77-2.37-3.18-2.03-5.22 3.28 0.54 6.34 4.58 9.69 5.93 2.77 1.12 7.9 5.92 10.6 7.3 20.68 10.56 28.33 14.29 53.81 14.82v11.13c-25.51 0.48-57.09-9.21-72.07-33.96z"/>
    <path class="fil1" d="m921.62 1116.6c1-1.77 2.37-3.18 2.03-5.22-3.28 0.54-6.34 4.58-9.69 5.93-2.77 1.12-7.9 5.92-10.6 7.3-20.68 10.56-28.33 14.29-53.81 14.82v11.13c25.51 0.48 57.09-9.21 72.07-33.96z"/>
    <path class="fil10" d="m473.31 1159.8c31.01 83.38 110.07 154.35 230.46 204.91l-9.33 25.98c-143.6-64.68-230.63-147.16-259.94-232.21 58.68-16.06 102.74-27.19 157.49-54.68 1.41 30.82 12.57 59.35 25.44 86.86-12.7-13.43-31.72-58.03-31.81-74.98-31.68 20.46-76.33 32.2-112.31 44.13zm752.48 0c-31.01 83.38-110.07 154.35-230.46 204.91l9.33 25.98c143.6-64.68 230.63-147.16 259.94-232.21-58.68-16.06-102.74-27.19-157.49-54.68-1.41 30.82-12.57 59.35-25.44 86.86 12.7-13.43 31.72-58.03 31.81-74.98 31.68 20.46 76.33 32.2 112.31 44.13zm-528.24-331.35c21.9 14.66 43.22 13.84 61.36 25.92 5.87 3.91 10 7.56 17.02 9.55l-14.31 35.53c-5.19 12.93-10.3 23.88-11.02 38.03-0.11-24.2-43.17-82.34-56.76-102.22 1.32-2.24 3.07-4.33 3.71-6.82zm304 0c-21.9 14.66-43.22 13.84-61.36 25.92-5.87 3.91-10 7.56-17.02 9.55l14.31 35.53c5.19 12.93 10.3 23.88 11.02 38.03 0.11-24.2 43.17-82.34 56.76-102.22-1.32-2.24-3.07-4.33-3.71-6.82z"/>
    <path class="fil5" d="m560.08 893.18c1.39 7.29-0.97 16.74-2.68 23.85l-6.84 27.19-14.78 62.6 196.06 203.59-40.9-223.5c-35.93-27.95-119.25-86.68-136.02-113.75-3.34-5.39-4.69-10.36-3.27-16.54l-0.6-1.7c1.71-3.06 3.16-6.4 5.97-8.59l0.68 0.53c0.75 3.16 1.47 5.82 3.03 8.69 18.38 24.16 44.91 44.2 68.9 62.73 20.67 15.98 41.85 30.87 61.45 48.27 2.67 2.37 7.65 5.87 9.4 8.91 0.59 1.02 0.85 6.76 0.83 8.17l43.57 258.68-217.91-231.01 33.1-118.14zm578.94 0c-1.39 7.29 0.97 16.74 2.68 23.85l6.84 27.19 14.78 62.6-196.06 203.59 40.9-223.5c35.93-27.95 119.25-86.68 136.02-113.75 3.34-5.39 4.69-10.36 3.27-16.54l0.6-1.7c-1.71-3.06-3.16-6.4-5.97-8.59l-0.68 0.53c-0.75 3.16-1.47 5.82-3.03 8.69-18.38 24.16-44.91 44.2-68.9 62.73-20.67 15.98-41.85 30.87-61.45 48.27-2.67 2.37-7.65 5.87-9.4 8.91-0.59 1.02-0.85 6.76-0.83 8.17l-43.57 258.68 217.91-231.01-33.1-118.14zm-351.36-360.53 0.66 16.26-0.66 0.05c-81.14 4.2-102.08 33.68-150.37 94.63-5.17 6.52-9.03 14.75-14.47 20.83-0.65 0.77-1.62 1.36-1.96 2.3-0.68 1.89 0.31 8.32 0.4 10.57l2.18 49.19 1.72 27.05c-5.24-3.37-10.54-7.24-16.07-10.06-17.61-8.98-39.04-12.92-58.62-10.97l45.72 33.54c25.37 20.07 49.54 43.22 70.83 67.57l17.09 21.2c-0.85 1.1-0.3 0.63-1.7 1.32l-39.14-34.43-36.03-29.86-35.08-25.98c-6.81-4.97-14.12-9.65-20.52-15.12-2.31-1.97-3.13-4.42-4.07-7.23l-2.27-14.83c18.22-11.51 46.37-11.41 65.99-3.74-1.02-7.03-5.28-57.63-3.62-62.55 46.09-88.31 108.16-126.19 179.98-129.75zm123.78 0-0.66 16.26 0.66 0.05c81.14 4.2 102.08 33.68 150.37 94.63 5.17 6.52 9.03 14.75 14.47 20.83 0.65 0.77 1.62 1.36 1.96 2.3 0.68 1.89-0.31 8.32-0.4 10.57l-2.18 49.19-1.72 27.05c5.24-3.37 10.54-7.24 16.07-10.06 17.61-8.98 39.04-12.92 58.62-10.97l-45.72 33.54c-25.37 20.07-49.54 43.22-70.83 67.57l-17.09 21.2c0.85 1.1 0.3 0.63 1.7 1.32l39.14-34.43 36.03-29.86 35.08-25.98c6.81-4.97 14.12-9.65 20.52-15.12 2.31-1.97 3.13-4.42 4.07-7.23l2.27-14.83c-18.22-11.51-46.37-11.41-65.99-3.74 1.02-7.03 5.28-57.63 3.62-62.55-46.09-88.31-108.16-126.19-179.98-129.75z"/>
    <path d="m569.59 274.98c31.2 88.8 61.38 285 25.75 373.9l-9.73-9.91c7.4-12.74-17.62-96.82-21.23-110.71l-9.51-33.09c-0.49-3.42-1.2-6.71-2.02-10.07-0.16-0.66-1.12-3.43-1-3.99 0.36-1.59 4.21-5.74 5.29-7.07l15.64-19.15c2.66-3.03 11.22-10.64 12.11-14.13 2.74-10.84-15.41-140.6-15.3-165.78zm559.92 0c-31.2 88.8-61.38 285-25.75 373.9l9.73-9.91c-7.4-12.74 17.62-96.82 21.23-110.71l9.51-33.09c0.49-3.42 1.2-6.71 2.02-10.07 0.16-0.66 1.12-3.43 1-3.99-0.36-1.59-4.21-5.74-5.29-7.07l-15.64-19.15c-2.66-3.03-11.22-10.64-12.11-14.13-2.74-10.84 15.41-140.6 15.3-165.78z" fill="#9c5d00" fill-rule="nonzero"/>
    <path class="fil10" d="m547.58 743.52c0.94 2.81 1.76 5.26 4.07 7.23 6.4 5.47 13.71 10.16 20.52 15.12l35.08 25.98 36.03 29.86 39.14 34.43c1.4-0.68 0.85-0.22 1.7-1.32 2.68 2.22 6.92 8.32 7.81 11.62 1.43 5.33 1.21 11.9 1.87 17.46l6.93 61.43-80.52-52.75-39.07-23.82c-4.88-3.28-11.44-7.05-15.14-11.54-2.36-2.85-3.86-7.99-7.19-9.82l-1.1-0.53-0.68-0.53c2.52-5.63-7.94-90.17-9.45-102.82zm603.94 0c-0.94 2.81-1.76 5.26-4.07 7.23-6.4 5.47-13.71 10.16-20.52 15.12l-35.08 25.98-36.03 29.86-39.14 34.43c-1.4-0.68-0.85-0.22-1.7-1.32-2.68 2.22-6.92 8.32-7.81 11.62-1.43 5.33-1.21 11.9-1.87 17.46l-6.93 61.43 80.52-52.75 39.07-23.82c4.88-3.28 11.44-7.05 15.14-11.54 2.36-2.85 3.86-7.99 7.19-9.82l1.1-0.53 0.68-0.53c-2.52-5.63 7.94-90.17 9.45-102.82zm-563.07 163.38 5.3 4.78 16.06 13.65 4.65 3.02 29.05 21.91c6.26 4.65 13.87 9.4 19.41 14.84l28.03 21.8 40.9 223.5-196.06-203.59c-1.03-2.58 23.7-111.77 24.3-113.64-3.99-4.02-7.55-8.94-10.37-13.85-5.55-9.66-3.25-14.89 1.34-24.4l0.6 1.7c-1.42 6.18-0.07 11.15 3.27 16.54 8 12.91 22.04 23.9 33.53 33.74zm522.2 0-5.3 4.78-16.06 13.65-4.65 3.02-29.05 21.91c-6.26 4.65-13.87 9.4-19.41 14.84l-28.03 21.8-40.9 223.5 196.06-203.59c1.03-2.58-23.7-111.77-24.3-113.64 3.99-4.02 7.55-8.94 10.37-13.85 5.55-9.66 3.25-14.89-1.34-24.4l-0.6 1.7c1.42 6.18 0.07 11.15-3.27 16.54-8 12.91-22.04 23.9-33.53 33.74zm-691.03 263.73 1.62 0.2c84.78 162.19 261.56 222.54 269.9 234.97 0.15 0.22-0.09 0.52-0.13 0.78-1.95 13.48-0.51 44.22 3.49 56.25-125.01-33.37-307.21-131.83-396.83-220.65l0.91-0.06c11.38-5.82 103.89-37.04 121.04-71.48zm859.86 0-1.62 0.2c-84.78 162.19-261.56 222.54-269.9 234.97-0.15 0.22 0.09 0.52 0.13 0.78 1.95 13.48 0.51 44.22-3.49 56.25 125.01-33.37 307.21-131.83 396.83-220.65l-0.91-0.06c-11.38-5.82-103.89-37.04-121.04-71.48zm-745.31-926.23 24.14-56.98 0.24-0.8c46.06 114.86 129.39 218.51 181.4 337.11-11.73 5.86-72.26 40.47-80 47.35-5.94-46.38-26.19-106.67-39.05-152.76l-11.86-43.81-9.58-30.8-23.88-80.18-10.2-30.86 21.08 211.01-34.59 37.43c7.79 16.12 45.2 138.17 33.76 157.86-5.05-5.12-9.43-10.64-14.18-16.01l-15.54-17.22c-9.14-11.08-17.61-23.42-25.44-35.44-7.84-12.02-16.21-24.15-22.06-37.33l-7.18-13.32c-1.08-1.98-2.55-4.02-3-6.26-1.19-5.9-0.23-13.87-0.19-19.97l2.12-57.55c1.1-26.12 2.24-52.51 5.86-78.43 3.85-27.56 9.82-55.03 17.75-81.7 3.12-10.48 5.83-21.41 10.43-31.35zm630.76 0-24.14-56.98-0.24-0.8c-46.06 114.86-129.39 218.51-181.4 337.11 11.73 5.86 72.26 40.47 80 47.35 5.94-46.38 26.19-106.67 39.05-152.76l11.86-43.81 9.58-30.8 23.88-80.18 10.2-30.86-21.08 211.01 34.59 37.43c-7.79 16.12-45.2 138.17-33.76 157.86 5.05-5.12 9.43-10.64 14.18-16.01l15.54-17.22c9.14-11.08 17.61-23.42 25.44-35.44 7.84-12.02 16.21-24.15 22.06-37.33l7.18-13.32c1.08-1.98 2.55-4.02 3-6.26 1.19-5.9 0.23-13.87 0.19-19.97l-2.12-57.55c-1.1-26.12-2.24-52.51-5.86-78.43-3.85-27.56-9.82-55.03-17.75-81.7-3.12-10.48-5.83-21.41-10.43-31.35z"/>
    <path d="m520.98 398.7c1.37 0.42-7.41 94.57-4.13 110.75 3.47 17.08 32.65 62.97 43.12 77.23l-1.42 7.8c-13.45-16.98-45.86-64.49-51.08-85.74-1.57-6.38 11.85-97.53 13.5-110.03zm657.14 0c-1.37 0.42 7.41 94.57 4.13 110.75-3.47 17.08-32.65 62.97-43.12 77.23l1.42 7.8c13.45-16.98 45.86-64.49 51.08-85.74 1.57-6.38-11.85-97.53-13.5-110.03z" fill="#201617" fill-rule="nonzero"/>
    <path class="fil5" d="m507.45 446.14c-3.51-71.65 34.84-214.81 51.2-241.11 0 0-38.67 146.43-51.2 241.11zm684.2 0c3.51-71.65-34.84-214.81-51.2-241.11 0 0 38.67 146.43 51.2 241.11zm-522.02 59.7-100.74-286.27 158.44 294.3zm359.84 0 100.74-286.27-158.44 294.3z"/>
    <path class="fil10" d="m722.52 702.16c-8.96-6.05-18.65-9.54-28.66-13.41l-39.22-14.34c-10.66-3.69-20.52-8.29-31.82-9.99 3.72-11.63 53.25-118.63 165.44-117.02l2.87 68.25 3.45 56.13c1.08 10.74 1.48 21.85 6.59 31.62 4.34 8.3 10.87 14.72 16.35 22.2 14.86 20.29 25.57 41.04 32.04 65.42v170.54c-9.8 0.04-19.61 0.66-29.3 1.91-11.77 1.51-22.59 2.89-31.74 11.32-6.87 6.34-9.95 14.47-10.41 23.73-1.65 33.67 28.61 49.49 54.61 62.22 4.97 2.44 13.58 5.64 16.22 10.61-0.01 3.01 0.7 5.91-1.57 8.14-5.63 5.53-21.06 7.5-28.71 8.72-44.36 9.33-84.97 4.16-77.82-50.28 0.3 5.44 0.24 11.28 1.44 16.59l0.29 1.32c2.65 11.74 8.6 20.19 18.86 26.54 4.64 2.87 10.09 3.99 15.42 4.77 8.18-0.01 16.13-0.2 24.27-1.17 5.86-0.7 11.56-2.15 17.49-1.98 3.56-0.08 8.91-2.45 12.27-3.86l2.23-0.87 1.04-0.37 0.46-1.4c-14.27 5.2-44.23 5.17-58.89-1.35-11.53-5.12-22.01-17.46-26.49-29.22-1.54-4.03-2.26-8.02-2.37-12.32-0.47-19.69 2.67-40.02 4.53-59.61 1.25-13.16 1.64-26.36 3.57-39.48 0.79-5.36 1.37-10.67 3.4-15.74 5.65-14.1 14.46-25.76 22.41-38.45 16.18-25.82 21.98-42.62 26.66-72.6 0.93-5.97 3.1-15.73 0.92-21.44l0.03-0.54c0.13-4.54 3.13-8.6 2.46-12.92-1.91-12.2-73.56-73.15-88.32-71.67z"/>
    <path class="fil10" d="m976.59 702.16c8.96-6.05 18.65-9.54 28.66-13.41l39.22-14.34c10.66-3.69 20.52-8.29 31.82-9.99-3.72-11.63-53.25-118.63-165.44-117.02l-2.87 68.25-3.45 56.13c-1.08 10.74-1.48 21.85-6.59 31.62-4.34 8.3-10.87 14.72-16.35 22.2-14.86 20.29-25.57 41.04-32.04 65.42v170.54c9.8 0.04 19.61 0.66 29.3 1.91 11.77 1.51 22.59 2.89 31.74 11.32 6.87 6.34 9.95 14.47 10.41 23.73 1.65 33.67-28.61 49.49-54.61 62.22-4.97 2.44-13.58 5.64-16.22 10.61 0.01 3.01-0.7 5.91 1.57 8.14 5.63 5.53 21.06 7.5 28.71 8.72 44.36 9.33 84.97 4.16 77.82-50.28-0.3 5.44-0.24 11.28-1.44 16.59l-0.29 1.32c-2.65 11.74-8.6 20.19-18.86 26.54-4.64 2.87-10.09 3.99-15.42 4.77-8.18-0.01-16.13-0.2-24.27-1.17-5.86-0.7-11.56-2.15-17.49-1.98-3.56-0.08-8.91-2.45-12.27-3.86l-2.23-0.87-1.04-0.37-0.46-1.4c14.27 5.2 44.23 5.17 58.89-1.35 11.53-5.12 22.01-17.46 26.49-29.22 1.54-4.03 2.26-8.02 2.37-12.32 0.47-19.69-2.67-40.02-4.53-59.61-1.25-13.16-1.64-26.36-3.57-39.48-0.79-5.36-1.37-10.67-3.4-15.74-5.65-14.1-14.46-25.76-22.41-38.45-16.18-25.82-21.98-42.62-26.66-72.6-0.93-5.97-3.1-15.73-0.92-21.44l-0.03-0.54c-0.13-4.54-3.13-8.6-2.46-12.92 1.91-12.2 73.56-73.15 88.32-71.67z"/>
    <path class="fil5" d="m808.35 787.3c2.18 5.7 0.01 15.47-0.92 21.44-4.68 29.98-10.47 46.79-26.66 72.6-7.96 12.7-16.76 24.35-22.41 38.45-2.03 5.07-2.61 10.38-3.4 15.74-1.93 13.11-2.32 26.31-3.57 39.48-1.86 19.59-5 39.92-4.53 59.61 0.1 4.3 0.83 8.29 2.37 12.32 4.49 11.75 14.96 24.1 26.49 29.22 14.66 6.51 44.62 6.55 58.89 1.35l-0.46 1.4-1.04 0.37-2.23 0.87c-3.36 1.41-8.71 3.78-12.27 3.86-5.93-0.17-11.64 1.28-17.49 1.98-8.14 0.97-16.09 1.17-24.27 1.17-5.33-0.78-10.78-1.89-15.42-4.77-10.26-6.35-16.22-14.8-18.86-26.54l-0.29-1.32c-1.2-5.31-1.14-11.15-1.44-16.59l8.84-88.96c0.71-3.71 0.69-7.71 0.93-11.48 0.72-14.15 5.83-25.1 11.02-38.03l14.31-35.53c2.5-6.38 7.17-12.21 11.01-17.88 5.51-8.14 10.84-16.21 14.44-25.41 4.24-10.81 5.48-22.6 5.76-34.1l-0.08-5.71c-2.59-5.5-8.91-10.43-13.23-14.76-22.62-22.72-46.83-43.23-71.3-63.9 14.76-1.47 86.41 59.48 88.32 71.67 0.67 4.32-2.32 8.38-2.46 12.92l-0.03 0.54zm82.4 0c-2.18 5.7-0.01 15.47 0.92 21.44 4.68 29.98 10.47 46.79 26.66 72.6 7.96 12.7 16.76 24.35 22.41 38.45 2.03 5.07 2.61 10.38 3.4 15.74 1.93 13.11 2.32 26.31 3.57 39.48 1.86 19.59 5 39.92 4.53 59.61-0.1 4.3-0.83 8.29-2.37 12.32-4.49 11.75-14.96 24.1-26.49 29.22-14.66 6.51-44.62 6.55-58.89 1.35l0.46 1.4 1.04 0.37 2.23 0.87c3.36 1.41 8.71 3.78 12.27 3.86 5.93-0.17 11.64 1.28 17.49 1.98 8.14 0.97 16.09 1.17 24.27 1.17 5.33-0.78 10.78-1.89 15.42-4.77 10.26-6.35 16.22-14.8 18.86-26.54l0.29-1.32c1.2-5.31 1.14-11.15 1.44-16.59l-8.84-88.96c-0.71-3.71-0.69-7.71-0.93-11.48-0.72-14.15-5.83-25.1-11.02-38.03l-14.31-35.53c-2.5-6.38-7.17-12.21-11.01-17.88-5.51-8.14-10.84-16.21-14.44-25.41-4.24-10.81-5.48-22.6-5.76-34.1l0.08-5.71c2.59-5.5 8.91-10.43 13.23-14.76 22.62-22.72 46.83-43.23 71.3-63.9-14.76-1.47-86.41 59.48-88.32 71.67-0.67 4.32 2.32 8.38 2.46 12.92l0.03 0.54z"/>
    <path class="fil8" d="m785.55 1091.9c-1.03 1.51-1.64 2.21-4.18 2.69l-2.1 0.22c2.49 4.6 8.18 8.73 12.25 11.98 16.19 12.92 27.28 20.73 47.43 25.81-5.93 3.64-10.52 0.59-16.66-0.39-3.14-0.5-6.52-0.36-9.7-0.35l-0.24 0.74c-4.89-2.08-10.11-4.73-16.61-8.05-2.7-1.38-7.83-6.18-10.6-7.3-3.35-1.35-6.41-5.39-9.69-5.93l-0.01 0.09v0.01l-0.01 0.08v0.01l-0.01 0.08v0.02l-0.01 0.07v0.56l0.01 0.09v0.02l0.01 0.06v0.02l0.01 0.07v0.01l0.01 0.07v0.01l0.01 0.08 0.04 0.16v0.01l0.02 0.07v0.01l0.02 0.07 0.01 0.02 0.02 0.06 0.01 0.02 0.03 0.09 0.02 0.05 0.01 0.03 0.02 0.04 0.02 0.08 0.02 0.04 0.01 0.03 0.02 0.05 0.01 0.03 0.02 0.05 0.01 0.03 0.02 0.05 0.08 0.16v0.01l0.03 0.07v0.01l0.12 0.21 0.01 0.01 0.03 0.06 0.01 0.01 0.08 0.16 0.03 0.05 0.02 0.03 0.03 0.05 0.02 0.03 0.03 0.04 0.02 0.03 0.04 0.08 0.02 0.03 0.03 0.05 0.02 0.03 0.03 0.05 0.01 0.02 0.03 0.05 0.01 0.02 0.04 0.06 0.01 0.01 0.04 0.06 0.01 0.01 0.04 0.07v0.01l0.1 0.14 0.04 0.07 0.01 0.01 0.04 0.06 0.01 0.01 0.04 0.06 0.01 0.02 0.04 0.05 0.02 0.02 0.03 0.05 0.02 0.03 0.03 0.05 0.02 0.03 0.06 0.08 0.02 0.04 0.03 0.04 0.02 0.03 0.03 0.05 0.02 0.03 0.03 0.05 0.01 0.02 0.04 0.06 0.01 0.02 0.04 0.06 0.01 0.01c-0.83-0.51-1.67-0.88-2.53-1.03-0.34 2.04 1.03 3.45 2.03 5.22l-0.69 2.24c-1.88-1.42-4.17-5.45-5.42-7.46-5.9-9.52-9.55-18.19-12.03-29.06l-0.01-0.07c7.42 3.94 16.64 5.68 26.89 5.83zm128 0c1.03 1.51 1.64 2.21 4.18 2.69l2.1 0.22c-2.49 4.6-8.18 8.73-12.25 11.98-16.19 12.92-27.28 20.73-47.43 25.81 5.93 3.64 10.52 0.59 16.66-0.39 3.14-0.5 6.52-0.36 9.7-0.35l0.24 0.74c4.89-2.08 10.11-4.73 16.61-8.05 2.7-1.38 7.83-6.18 10.6-7.3 3.35-1.35 6.41-5.39 9.69-5.93l0.01 0.09v0.01l0.01 0.08v0.01l0.01 0.08v0.02l0.01 0.07v0.56l-0.01 0.09v0.02l-0.01 0.06v0.02l-0.01 0.07v0.01l-0.01 0.07v0.01l-0.01 0.08-0.04 0.16v0.01l-0.02 0.07v0.01l-0.02 0.07-0.01 0.02-0.02 0.06-0.01 0.02-0.03 0.09-0.02 0.05-0.01 0.03-0.02 0.04-0.02 0.08-0.02 0.04-0.01 0.03-0.02 0.05-0.01 0.03-0.02 0.05-0.01 0.03-0.02 0.05-0.08 0.16v0.01l-0.03 0.07v0.01l-0.12 0.21-0.01 0.01-0.03 0.06-0.01 0.01-0.08 0.16-0.03 0.05-0.02 0.03-0.03 0.05-0.02 0.03-0.03 0.04-0.02 0.03-0.04 0.08-0.02 0.03-0.03 0.05-0.02 0.03-0.03 0.05-0.01 0.02-0.03 0.05-0.01 0.02-0.04 0.06-0.01 0.01-0.04 0.06-0.01 0.01-0.04 0.07v0.01l-0.1 0.14-0.04 0.07-0.01 0.01-0.04 0.06-0.01 0.01-0.04 0.06-0.01 0.02-0.04 0.05-0.02 0.02-0.03 0.05-0.02 0.03-0.03 0.05-0.02 0.03-0.06 0.08-0.02 0.04-0.03 0.04-0.02 0.03-0.03 0.05-0.02 0.03-0.03 0.05-0.01 0.02-0.04 0.06-0.01 0.02-0.04 0.06-0.01 0.01c0.83-0.51 1.67-0.88 2.53-1.03 0.34 2.04-1.03 3.45-2.03 5.22l0.69 2.24c1.88-1.42 4.17-5.45 5.42-7.46 5.9-9.52 9.55-18.19 12.03-29.06l0.01-0.07c-7.42 3.94-16.64 5.68-26.89 5.83z"/>
    <path class="fil3" d="m758.67 1086.2h0.13c2.54 1.34 5.29 2.42 8.22 3.26l0.05 0.04c5.28 13.63 32.5 44.5 71.88 43.16 3.48 0.72 7.03 0.96 10.6 0.96v6.69c-46.09-0.96-61.24-19.47-73.13-28.25 6.76 25.39 50.92 37.63 73.13 38.5v4.23c-44.5-0.02-79.66-19.45-90.88-68.58zm181.76 0h-0.13c-2.54 1.34-5.29 2.42-8.22 3.26l-0.05 0.04c-5.28 13.63-32.5 44.5-71.88 43.16-3.48 0.72-7.03 0.96-10.6 0.96v6.69c46.09-0.96 61.24-19.47 73.13-28.25-6.76 25.39-50.92 37.63-73.13 38.5v4.23c44.5-0.02 79.66-19.45 90.88-68.58z"/>
    <path class="fil5" d="m849.55 966.59v31.34c-6.44 0.09-16.15-4.87-22.17-7.24l-33.62-13.15c13.18-11.56 38.53-10.89 55.79-10.95zm0 0v31.34c6.44 0.09 16.15-4.87 22.17-7.24l33.62-13.15c-13.18-11.56-38.53-10.89-55.79-10.95z"/>
    <path class="fil13" d="m692.23 1380.6c-20.53-8.35-36.74-17.19-56.09-27.88-41.11-22.71-81.8-50.18-115.78-82.7-28.95-27.7-54.96-61.14-67.76-99.54l-1.67-5.01 10.02-3.34 1.67 5.01c12.23 36.7 37.38 68.78 65.04 95.25 33.31 31.88 73.29 58.82 113.59 81.08 19.18 10.6 39.49 21.05 59.85 29.33l-3.98 9.78-4.89-1.99zm314.65 0c20.53-8.35 36.74-17.19 56.09-27.88 41.11-22.71 81.8-50.18 115.78-82.7 28.95-27.7 54.96-61.14 67.76-99.54l1.67-5.01-10.02-3.34-1.67 5.01c-12.23 36.7-37.38 68.78-65.04 95.25-33.31 31.88-73.29 58.82-113.59 81.08-19.18 10.6-39.49 21.05-59.85 29.33l3.98 9.78 4.89-1.99z"/>
    <path d="m852.66 1274.6c-75.03 0-135.86 60.83-135.86 135.86s60.82 135.86 135.86 135.86c75.03 0 135.86-60.83 135.86-135.86s-60.83-135.86-135.86-135.86z" fill="#fefe48"/>
    <path d="m852.66 1277.3c-73.51 0-133.11 59.6-133.11 133.11s59.59 133.11 133.11 133.11c73.51 0 133.11-59.59 133.11-133.11 0-73.51-59.59-133.11-133.11-133.11z" fill="#fdb800"/>
    <path class="fil16" d="m852.66 1290.9c-66.01 0-119.53 53.52-119.53 119.53 0 66.02 53.52 119.53 119.53 119.53 66.02 0 119.53-53.52 119.53-119.53 0-66.02-53.52-119.53-119.53-119.53z"/>
    <path d="m852.66 1294.7c-63.89 0-115.68 51.79-115.68 115.68s51.79 115.68 115.68 115.68 115.68-51.79 115.68-115.68-51.79-115.68-115.68-115.68z" fill="#ce8e00"/>
    <path class="fil16" d="m852.66 1314.3c-53.06 0-96.06 43.01-96.06 96.07s43.01 96.07 96.06 96.07c53.06 0 96.07-43.01 96.07-96.07s-43.01-96.07-96.07-96.07z"/>
    <path d="m852.66 1319.4c-50.24 0-90.97 40.73-90.97 90.97s40.73 90.97 90.97 90.97 90.97-40.73 90.97-90.97-40.73-90.97-90.97-90.97z" fill="#febe01"/>
    <path d="m762.9 1395.6c7.09 43.17 44.57 76.11 89.75 76.11s82.66-32.94 89.75-76.11c-7.09-43.17-44.57-76.11-89.75-76.11s-82.66 32.94-89.75 76.11z" fill="#f1b101"/>
    <path d="m764.22 1389c21 20.27 52.81 33.2 88.43 33.2s67.44-12.93 88.43-33.2c-9.62-39.92-45.56-69.58-88.43-69.58s-78.81 29.66-88.43 69.58z" fill="#e6e6e6"/>
    <path class="fil13" d="m767.47 1378.4c20.96 18.54 51.35 30.2 85.18 30.2s64.22-11.66 85.18-30.2c-12.94-34.47-46.19-59-85.18-59s-72.24 24.53-85.18 59z"/>
  </g>
</svg>
