<svg width="200" height="200" viewBox="0 0 26 26" version="1.1" xmlns="http://www.w3.org/2000/svg">
    <path fill="none" stroke="#efab26" stroke-miterlimit="10" stroke-width="0.25"
        d="M21.594,13.9H20.313c-.156,0-.156-.023-.156-.156a8.151,8.151,0,0,0,0-1.482c-.011-.144.023-.144.134-.144h1.125c.122,0,.178-.034.178-.167V10.624c-.011-.178-.011-.178-.2-.178H19.946a.221.221,0,0,1-.245-.178,6.5,6.5,0,0,0-.635-1.236A7.414,7.414,0,0,0,18.2,7.951a7.288,7.288,0,0,0-1.425-1.1,7.585,7.585,0,0,0-2.54-.936,7.4,7.4,0,0,0-1.314-.144H6.837c-.156,0-.156.022-.156.155V10.3c0,.145-.033.145-.156.145H4.777c-.123,0-.123.034-.123.123v1.425c0,.123.034.123.134.123h1.76c.133,0,.133.033.133.122v1.526c0,.145-.044.145-.144.145H4.654v1.537c0,.133.034.133.134.133h1.76c.133,0,.133.012.133.112v4.5h5.625a9.768,9.768,0,0,0,1.893-.156,8.873,8.873,0,0,0,1.915-.6c.335-.156.646-.357.981-.546a8.562,8.562,0,0,0,.857-.69,6.369,6.369,0,0,0,1.7-2.484.206.206,0,0,1,.234-.156h1.537c.122,0,.167-.033.167-.178V14.121C21.594,14.043,21.65,13.966,21.594,13.9ZM8.307,7.461c0-.111.023-.156.134-.156H12.8a5.7,5.7,0,0,1,3.82,1.381,2.248,2.248,0,0,1,.367.357,3.921,3.921,0,0,1,.6.757,2.921,2.921,0,0,1,.289.512.1.1,0,0,1,0,.112h.045c-.023.044-.1.067-.1.067H8.463c-.156,0-.156-.034-.156-.156Zm9.578,8.275a5.324,5.324,0,0,1-2.261,2.283h-.055a3.111,3.111,0,0,1-.59.268,5.723,5.723,0,0,1-1.76.39,2.224,2.224,0,0,1-.6.044H8.474c-.167,0-.167-.033-.167-.167V15.747c0-.167.045-.167.167-.167h8.988a2.575,2.575,0,0,1,.412,0C17.941,15.614,17.885,15.736,17.885,15.736Zm.546-1.982c-.011.145-.056.145-.167.145H8.508c-.2,0-.2,0-.2-.19V12.261c0-.111.034-.144.156-.144h9.812c.1,0,.156.033.156.133A11.437,11.437,0,0,1,18.431,13.754Z" />
</svg>