<svg width="200" height="200" viewBox="0 0 26 26" version="1.1" xmlns="http://www.w3.org/2000/svg">
    <path fill="#ddd"
        d="M13,16.042a.116.116,0,0,1-.062-.017.124.124,0,0,1-.063-.108V4a.125.125,0,0,1,.232-.064l5.3,8.786a.123.123,0,0,1-.043.172l-5.3,3.13A.118.118,0,0,1,13,16.042ZM13.125,4.45V15.7l5-2.955Z" />
    <path fill="#ddd"
        d="M13,16.042a.118.118,0,0,1-.063-.018l-5.3-3.13a.123.123,0,0,1-.043-.172l5.3-8.786A.125.125,0,0,1,13.125,4V15.917a.124.124,0,0,1-.063.108A.116.116,0,0,1,13,16.042Zm-5.123-3.3,5,2.955V4.45Z" />
    <path fill="#ddd"
        d="M13,21.378a.165.165,0,0,1-.038,0,.126.126,0,0,1-.087-.12V16.919a.122.122,0,0,1,.062-.107l5.3-3.128a.125.125,0,0,1,.166.179l-5.3,7.463A.126.126,0,0,1,13,21.378Zm.125-4.387v3.87L17.857,14.2Z" />
    <path fill="#ddd"
        d="M13,21.378a.126.126,0,0,1-.1-.052L7.6,13.863a.122.122,0,0,1,.01-.156.125.125,0,0,1,.155-.023l5.3,3.128a.122.122,0,0,1,.062.107v4.334a.126.126,0,0,1-.087.12A.165.165,0,0,1,13,21.378ZM8.146,14.2l4.729,6.664v-3.87Z" />
    <path fill="#ddd"
        d="M13,16.042a.116.116,0,0,1-.062-.017.124.124,0,0,1-.063-.108V10.38a.123.123,0,0,1,.057-.105.128.128,0,0,1,.12-.009l5.3,2.407a.125.125,0,0,1,.012.221l-5.3,3.13A.118.118,0,0,1,13,16.042Zm.125-5.468V15.7l4.9-2.9Z" />
    <path fill="#ddd"
        d="M13,16.042a.118.118,0,0,1-.063-.018l-5.3-3.13a.125.125,0,0,1,.012-.221l5.3-2.407a.125.125,0,0,1,.12.009.123.123,0,0,1,.057.105v5.537a.124.124,0,0,1-.063.108A.116.116,0,0,1,13,16.042ZM7.975,12.8l4.9,2.9V10.574Z" />
</svg>