<?xml version="1.0" encoding="UTF-8"?>
<svg version="1.1" viewBox="0 0 200 200" xmlns="http://www.w3.org/2000/svg">
 <path d="m173.24 88.293c0 41.328-33.515 74.833-74.857 74.833-41.342-6e-4 -74.854-33.504-74.854-74.833 0-41.329 33.513-74.832 74.854-74.832 41.342 0 74.857 33.504 74.857 74.832z" fill-rule="evenodd" stroke="#000" stroke-miterlimit="11.339" stroke-width=".42"/>
 <path d="m57.093 46.67c-3.1578 3.3133-5.7623 6.0993-5.7881 6.1533-0.0258 0.07979 2.8157 2.8664 6.3132 6.1797 3.4974 3.3391 6.5496 6.2571 6.7608 6.4419l0.39367 0.36835-0.71053 1.183c-6.2333 10.307-7.5224 22.717-3.6031 34.127 0.73634 2.1561 1.9972 4.9193 3.0786 6.7328 0.5245 0.89267 0.76154 1.4716 0.70753 1.5766-0.05161 0.10559-3.2346 3.4711-7.0753 7.4947-3.8395 3.9954-6.9685 7.3346-7.0225 7.3885-0.0258 0.0774 10.731 10.463 11.758 11.305l0.39427 0.34196 6.0761-6.3363a4409.1 4407.7 0 0 0 6.9433-7.2836l0.89536-0.89267 0.84196 0.52492c4.2872 2.7344 9.3107 4.6283 14.859 5.6266 2.7875 0.49913 8.1015 0.62991 11.074 0.26216 5.734-0.6563 11.414-2.5754 16.07-5.3896l1.2092-0.73609 1.2896 1.2634c2.8151 2.732 13.336 12.724 13.441 12.778 0.10562 0.0516 11.651-12.016 11.625-12.174-0.0258-0.0792-7.9419-7.6789-12.782-12.227l-1.6035-1.5256 0.73574-1.2094c6.1817-10.281 7.469-22.743 3.4716-34.232-0.57851-1.6828-2.3416-5.47-3.366-7.2062l-0.4993-0.86688 6.7584-7.073c3.7087-3.8664 6.732-7.1 6.7062-7.1774-0.10502-0.26516-11.941-11.439-12.098-11.439-0.10502 0-3.078 3.0236-6.6294 6.7586-3.5491 3.7075-6.4956 6.7562-6.5754 6.782-0.0516 0.02759-0.39367-0.13198-0.70993-0.36835-0.89296-0.60471-3.1554-1.8393-4.4168-2.4183-3.8419-1.7625-7.4192-2.84-11.573-3.4447-2.1568-0.31676-8.629-0.36775-10.626-0.07979-4.7865 0.6839-8.7064 1.8675-12.706 3.8664-1.1552 0.55072-2.4989 1.2892-3.024 1.603l-0.94698 0.57892-1.0784-1.0522c-0.57911-0.57892-3.2088-3.0488-5.8133-5.5468-2.6021-2.4722-5.2606-4.9961-5.8913-5.6266l-1.1582-1.132zm44.16 17.144c4.1822 0.49913 7.9184 1.9191 11.362 4.3374 1.7631 1.237 4.3928 3.8664 5.6308 5.6266 7.0213 9.9406 5.68 23.455-3.1578 31.737-7.5482 7.0466-18.462 8.6238-27.642 3.9438-6.6294-3.3907-11.311-9.5962-12.811-17.039-0.47349-2.3643-0.47349-6.782 0-9.1229 0.44768-2.3127 1.0526-3.9696 2.185-6.2847 4.5242-9.0977 14.335-14.408 24.433-13.198z" fill="#fff" stroke-width=".60001"/>
</svg>
