<svg width="200" height="200" viewBox="0 0 26 26" version="1.1" xmlns="http://www.w3.org/2000/svg">
    <path fill="#cf5ed4"
        d="M8,10.127l-3.3-4.115H21.589L21.5,6.19C20.276,8.772,20.232,8.762,20.1,8.715c-.191-.013-7.474,0-11.365.007ZM5.226,6.262,7.958,9.671l.622-1.2h.075c9.272-.019,11.065-.01,11.426,0,.148-.225.717-1.386,1.112-2.21Z" />
    <path fill="#cf5ed4" d="M15.437,14.342h-5.9L10.92,11.68h5.927Zm-5.49-.25h5.339l1.146-2.162H11.071Z" />
    <path fill="#cf5ed4"
        d="M21.651,20.01H4.768l.085-.179c1.23-2.587,1.277-2.57,1.406-2.525.193.012,7.475,0,11.366-.007l.729-1.4ZM5.164,19.76H21.131L18.4,16.35l-.621,1.2H17.7c-9.263.021-11.063.01-11.426,0C6.127,17.774,5.558,18.935,5.164,19.76Z" />
</svg>