<svg width="200" height="200" viewBox="0 0 26 26" version="1.1" xmlns="http://www.w3.org/2000/svg">
    <path fill="#fff" fill-rule="nonzero"
        d="M15.5862777,8.61886031 C15.2347495,8.40917623 14.8582593,8.24450852 14.4656595,8.12872907 C14.4155324,8.11926063 14.3754308,8.0992098 14.3253037,8.08918439 C13.8922288,7.96795807 13.4444267,7.90741387 12.9947088,7.90924192 C12.5842239,7.90924192 12.1943468,7.95941101 11.8039127,8.04852578 C11.7337348,8.06913357 11.6641139,8.07915898 11.6034045,8.09865284 C11.2272607,8.20699997 10.8647352,8.35798997 10.5228879,8.54868242 C8.88715484,9.44932943 7.87126408,11.1688739 7.87172283,13.0361681 C7.87078369,14.9326173 8.91780486,16.6743668 10.5930658,17.5631984 C10.9439552,17.7531242 11.3238069,17.9029484 11.7237094,18.0032026 L11.7237094,17.7832005 L11.7337348,16.973927 C11.3282017,16.8471811 10.9462373,16.6546936 10.6030912,16.4041494 C9.50637864,15.6235898 8.86009329,14.3565341 8.8720781,13.0104627 C8.8840629,11.6643914 9.55280659,10.4090441 10.6632436,9.6481359 C11.0108594,9.40377105 11.3961953,9.21806472 11.8039127,9.09840916 C12.1893201,8.97794654 12.590916,8.91727512 12.9947088,8.91850872 C13.8771059,8.92144559 14.7357191,9.20485425 15.4464789,9.72778223 C16.4977819,10.5066831 17.1176736,11.7377882 17.1173809,13.0461935 C17.1170769,14.3771437 16.4766422,15.6267169 15.3963519,16.4041494 C15.0560448,16.6542277 14.6656107,16.8441536 14.2556828,16.9833954 L14.2456574,17.8634038 L14.2456574,18.0232534 C14.6421972,17.9230086 15.0251894,17.7752724 15.3863265,17.5832492 C17.0071013,16.7238486 18.1176942,15.0150729 18.1176942,13.0562189 C18.1176942,11.1569604 17.09733,9.5083371 15.5862777,8.61886031 L15.5862777,8.61886031 Z">
    </path>
    <path fill="#fff" fill-rule="nonzero"
        d="M20.9498729,17.3638041 C20.9197967,17.2836008 20.8696696,17.2535246 20.8095172,17.2535246 C20.7393393,17.2535246 20.6691614,17.3237024 20.5995405,17.4735266 C20.5293626,17.6239078 20.489261,17.7330734 20.4692102,17.8132767 C20.3729907,18.0754947 20.2558355,18.3295484 20.1188777,18.5729801 C20.0186236,18.7428552 19.8687994,18.932781 19.6588227,19.1427577 C19.5585686,19.2524802 19.398719,19.3622028 19.1887423,19.4624569 C18.9782087,19.562711 18.7381557,19.6223065 18.4580012,19.6122811 L16.5570717,19.5922303 C16.0563581,19.5922303 15.7366589,19.4919762 15.5963031,19.3026073 C15.4559474,19.1126814 15.3863265,18.8225015 15.3863265,18.4331813 L15.3863265,17.9129739 L15.3963519,16.8736729 L15.3963519,16.7438995 L15.4464789,10.2179135 L15.4464789,9.59800884 C15.4464789,9.39805758 15.4860236,9.23820796 15.5662269,9.11845999 L15.5762523,9.10843457 C15.6464302,9.00818046 15.7366589,8.93855954 15.8564069,8.88843249 C16.1686347,8.75487291 16.4940138,8.65444034 16.8272009,8.58878407 C16.9970759,8.54868242 17.1274063,8.49855537 17.2070526,8.4384029 C17.2789257,8.38638155 17.3260944,8.30696083 17.3373829,8.21895777 C17.3373829,8.13875448 17.2972813,8.08918439 17.217078,8.05910816 C17.1140607,8.02387231 17.0056787,8.00690818 16.8968218,8.0089811 C16.6868451,8.0089811 16.4969193,8.0089811 16.3270442,8.01900651 L16.3465381,6.05012706 L15.6063285,6.04010165 L15.5963031,7.14958053 C15.5963031,7.61910398 15.1262227,7.98893027 14.5458628,7.98893027 C13.9655028,7.98893027 13.4948655,7.59905316 13.5048909,7.13955512 L13.5048909,6.03007623 L12.85491,6.02005082 L12.8448846,7.12952971 C12.8448846,7.59905316 12.3647788,7.96887945 11.7944443,7.96887945 C11.2140843,7.95885404 10.7540293,7.57900233 10.7540293,7.1195043 L10.7740801,6 L10.0333136,6 L10.0132628,7.96887945 L9.96313573,7.96887945 C9.72650798,7.95712728 9.48978915,7.9472872 9.2530024,7.93936018 C9.12267205,7.93936018 9.01294949,7.94882863 8.9327462,7.97890486 C8.8525429,8.0089811 8.81244126,8.05910816 8.81244126,8.13875448 C8.81244126,8.22898319 8.8525429,8.29916107 8.9327462,8.36878198 C9.01294949,8.42893445 9.14272287,8.48852995 9.31315487,8.51916316 C9.6457377,8.59532147 9.97054089,8.70215972 10.2833919,8.83830543 C10.3936715,8.88843249 10.4738748,8.95861037 10.5340272,9.03881366 C10.5635465,9.07835834 10.5841543,9.11845999 10.6036481,9.15856163 C10.6537752,9.26828419 10.673826,9.39805758 10.673826,9.5579072 L10.6638006,10.1276848 L10.6638006,10.328193 L10.6136735,16.5740244 L10.6136735,16.8937237 L10.6036481,17.7932259 L10.6036481,18.4031051 C10.6036481,18.7929822 10.5240018,19.0826052 10.383646,19.2625057 C10.2432903,19.4424061 9.91356564,19.5421032 9.41285202,19.5320778 L7.51192258,19.512584 C7.23176802,19.512584 6.99171511,19.4524315 6.78118147,19.3521774 C6.60872765,19.266653 6.45023391,19.155482 6.31110105,19.0224527 C6.13988387,18.8468231 5.98892835,18.652524 5.86107147,18.4432067 C5.73233847,18.1971059 5.61869298,17.943403 5.52076444,17.6835033 C5.4861725,17.5670533 5.44259831,17.4534624 5.39043409,17.3437533 C5.32081317,17.1933721 5.2606607,17.1137258 5.19048282,17.1137258 C5.13033035,17.1137258 5.08020329,17.1538274 5.05012706,17.2234483 C5.02060779,17.2936262 5,17.3738295 5,17.4434504 C5,17.4534758 5,17.4735266 5.01058238,17.4935775 C5.02060779,17.5136283 5.02060779,17.5336791 5.02060779,17.5437045 C5.0902287,17.8734292 5.15038117,18.1630522 5.20050823,18.4331813 C5.25063529,18.6927281 5.30076235,18.9428064 5.33028162,19.1823024 C5.37038326,19.4223553 5.39043409,19.6724336 5.41048491,19.9319804 C5.42051032,20.0222091 5.44056114,20.09183 5.46061197,20.1620079 C5.4906882,20.2216034 5.54081526,20.2516796 5.62046159,20.2516796 C6.13120061,20.2516796 6.62133185,20.2516796 7.09141226,20.2416542 C7.56204964,20.2316288 8.01207923,20.2316288 8.45264037,20.2216034 C8.89264455,20.2216034 9.30312946,20.2121349 9.70303199,20.2021095 C10.1034915,20.1920841 10.4939256,20.1920841 10.8838027,20.1920841 C11.1238556,20.1920841 11.4040102,20.2021095 11.714241,20.2121349 L11.714241,20.2021095 L11.7242664,18.4827514 L11.7242664,18.2627493 L11.7342918,17.4534758 L11.7342918,17.2139799 L11.8044697,9.70828837 L11.8044697,9.23820796 L14.3163922,9.23820796 L14.3163922,9.66818672 L14.2562398,17.313677 L14.2562398,17.4635012 L14.2462144,18.3435096 L14.2462144,18.5028022 L14.236189,20.2416542 L14.236189,20.2516796 C14.5464197,20.2416542 14.8165489,20.2416542 15.0660702,20.2416542 C15.4565043,20.2416542 15.8469384,20.2516796 16.246841,20.2717304 C16.6478574,20.2917813 17.0678108,20.3018067 17.4977895,20.3118321 C17.9283253,20.3218575 18.3889372,20.3318829 18.8590176,20.3519337 C19.3290981,20.3719845 19.8192293,20.38201 20.3294114,20.38201 C20.4096146,20.38201 20.4597417,20.3519337 20.4898179,20.2917813 C20.5198942,20.2316288 20.5299196,20.1519825 20.5499704,20.0717792 C20.5689715,19.8208624 20.5990772,19.5709105 20.6401991,19.3226581 C20.6797438,19.0826052 20.7298709,18.8325269 20.7799979,18.5729801 C20.8401504,18.3128764 20.9003029,18.0232534 20.9805061,17.6929718 C20.9805061,17.6835033 20.9805061,17.6634525 20.9899746,17.6434017 C20.9899746,17.6233509 21,17.6133254 21,17.5932746 C20.9929028,17.5149969 20.9760637,17.4379109 20.9498729,17.3638041 L20.9498729,17.3638041 Z">
    </path>
</svg>