<?xml version="1.0" encoding="UTF-8"?>
<svg version="1.1" viewBox="0 0 200 200" xml:space="preserve" xmlns="http://www.w3.org/2000/svg">
<style type="text/css">
	.st0{clip-path:url(#SVGID_00000081648457739569956610000001876617350633091971_);}
	.st1{fill:#745DDF;}
	.st2{fill:#2EB6EA;}
	.st3{fill:#FFFFFF;}
	.st4{fill:none;}
</style>
<path transform="matrix(.05 0 0 .05 37.5 39.438)"
 d="m1500 1604c0 143-129 232-249 232-144 0-226-119-242-229l-14-96-345 97 16 77c49 243 215 418 441 470v344c-61-7-122-19-181-35-8-2-17-4-25-7-533-155-901-644-901-1200v-1201c0-27 22-49 49-49h1058v344c-124 36-229 118-295 228-42 73-64 155-64 239v3 7c3 280 209 398 404 486l97 42 8 4c154 71 241 117 241 243z" color="#000000" fill="#2ea9ea" style="-inkscape-stroke:none"/><path class="st3" transform="matrix(.05 0 0 .05 37.5 39.438)" d="m1849 1587v3c0 95-23 188-68 272-23 44-53 86-87 122-62 66-138 117-222 149v357l-100 9s-214 6-265 0l-1-343c-225-53-391-227-441-470l-16-77 345-97 14 96c16 110 98 229 242 229 120 0 249-89 249-232 0-126-87-172-242-243l-8-4-97-42c-195-88-401-205-404-486v-7-3c0-84 22-166 64-239 66-111 171-193 295-228v-344c225-2 243-1 366 21v327c133 46 243 141 308 266l37 69-285 183-44-77c-57-99-111-134-206-134-90 0-184 58-184 167 0 79 88 125 203 176l108 48c213 93 440 219 440 533z" fill="none"/><path class="st1" transform="matrix(.05 0 0 .05 37.5 39.438)" d="m2450 1608c-132 455-511 797-977 881v-356c84-32 160-83 222-149 34-37 64-78 87-122 44-84 68-177 68-272v-3c0-314-227-440-440-533l-108-48c-115-52-203-98-203-176 0-109 95-167 184-167 95 0 149 35 206 134l44 77 285-183-37-69c-65-124-176-220-308-266v-326c28 5 55 11 83 18 3 1 6 1 9 2s6 1 9 2c1 0 2 0 3 1 7 2 15 4 23 6 534 155 901 644 901 1200 0 118-17 236-50 349z" fill="#6f5ddf" stroke="#5f00bb" stroke-opacity=".82979" stroke-width="24.965" style="paint-order:normal"/>
</svg>
