<svg width="200" height="200" viewBox="0 0 26 26" version="1.1" xmlns="http://www.w3.org/2000/svg">
    <polygon fill="#16131b"
        points="25.499 23.365 25.499 23.635 25.469 23.665 12.879 13.035 12.679 12.875 0.249 2.385 0.249 2.115 0.279 2.085 12.879 12.715 13.069 12.875 25.499 23.365" />
    <polygon fill="#16131b"
        points="25.499 2.115 25.499 2.385 13.069 12.875 12.879 13.035 0.279 23.665 0.249 23.635 0.249 23.365 12.679 12.875 12.879 12.715 25.469 2.085 25.499 2.115" />
    <path fill="#777996"
        d="M23.319,5.728l-1.148,5.59H20.448l.693-3.613.1-.546-.478.284-1.644.978L17.839,7.3l-.317-.278-.091.412-.857,3.884H14.949l1.1-5.59h1.937L19.314,7.12l.156.164.178-.139,1.823-1.417h1.848m.306-.25h-2.24L19.5,6.948l-1.4-1.47h-2.25l-1.2,6.09h2.13l.9-4.08,1.42,1.24,1.8-1.07-.75,3.91h2.23l1.25-6.09Z" />
    <path fill="#d2cbe1"
        d="M8.379,20.272H5.644A3.314,3.314,0,0,1,2.8,18.24a4.47,4.47,0,0,1-.4-1.087l-.03-.119,2.609-.686.085.256a1.726,1.726,0,0,0,.83.985.469.469,0,0,0,.2.033H8.644a.235.235,0,0,0,.088-.011,3.627,3.627,0,0,0,1.063-.88.2.2,0,0,0,.046-.112l.336-1.752a.768.768,0,0,0,.029-.2,1.135,1.135,0,0,0-.372-.545.135.135,0,0,0-.11-.042H6.4l.5-2.626H9.963c.054,0,.175-.02.5-.274a2.284,2.284,0,0,0,.524-.532l.06-.169.331-1.708,0-.119c-.1-.233-.25-.5-.452-.5H8.164a.281.281,0,0,0-.082.017,3.9,3.9,0,0,0-.716.483,2.554,2.554,0,0,0-.63.708l-.048.086-2.7-.766.079-.139a6.1,6.1,0,0,1,.784-1.054C6.189,6.152,7.382,5.478,8.4,5.478h2.832a2.558,2.558,0,0,1,1.663.556,3.663,3.663,0,0,1,.584.645,5,5,0,0,1,.481.716,2.212,2.212,0,0,1,.154,1.549l-.334,1.794a3.653,3.653,0,0,1-1.356,2.068c.131.165.258.343.378.529a2.479,2.479,0,0,1,.161,1.581l-.384,1.943a3.547,3.547,0,0,1-.747,1.52,7.069,7.069,0,0,1-1.593,1.348A3.456,3.456,0,0,1,8.379,20.272Zm-5.7-3.06a3.911,3.911,0,0,0,.341.905,3.085,3.085,0,0,0,2.627,1.9H8.379a3.211,3.211,0,0,0,1.734-.509,6.874,6.874,0,0,0,1.535-1.3,3.294,3.294,0,0,0,.689-1.407l.384-1.941a2.222,2.222,0,0,0-.135-1.41,6.23,6.23,0,0,0-.439-.6l-.17-.205h.242a3.46,3.46,0,0,0,1.318-1.963l.336-1.8a1.983,1.983,0,0,0-.133-1.386,4.923,4.923,0,0,0-.456-.675,3.5,3.5,0,0,0-.541-.6,2.317,2.317,0,0,0-1.508-.5H8.4c-.952,0-2.086.65-3.367,1.931a6.145,6.145,0,0,0-.666.868l2.2.625a2.924,2.924,0,0,1,.64-.694,3.9,3.9,0,0,1,.782-.52A.535.535,0,0,1,8.164,7.9h2.759c.279,0,.512.228.693.679l.008.046V8.8l-.338,1.752-.078.212a2.448,2.448,0,0,1-.591.618,1.221,1.221,0,0,1-.63.327H7.115L6.707,13.83H9.724a.39.39,0,0,1,.28.108,1.353,1.353,0,0,1,.44.654c.018.034.025.113-.023.326l-.335,1.749a.444.444,0,0,1-.106.232,3.859,3.859,0,0,1-1.133.934.448.448,0,0,1-.2.039H6.1a.717.717,0,0,1-.321-.061,2,2,0,0,1-.95-1.127l-.011-.034Zm9.529-4.547,0,0Z" />
    <path
        d="M13.746,7.5a2,2,0,0,1,.13,1.39l-.33,1.8a3.478,3.478,0,0,1-1.32,1.96h-.24l.17.2c.15.19.3.4.43.6a2.232,2.232,0,0,1,.14,1.41l-.38,1.94a3.389,3.389,0,0,1-.69,1.41,6.859,6.859,0,0,1-1.54,1.3,3.2,3.2,0,0,1-1.73.51H5.646a3.094,3.094,0,0,1-2.63-1.91,4.064,4.064,0,0,1-.34-.9l2.15-.56.01.03a2.033,2.033,0,0,0,.95,1.13.7.7,0,0,0,.32.06h2.54a.374.374,0,0,0,.2-.04,3.8,3.8,0,0,0,1.14-.94.411.411,0,0,0,.1-.23l.34-1.75c.05-.21.04-.29.02-.32a1.355,1.355,0,0,0-.44-.66.386.386,0,0,0-.28-.1H6.716l.4-2.13H10a1.154,1.154,0,0,0,.62-.33,2.177,2.177,0,0,0,.6-.62l.07-.21.34-1.75v-.17l-.01-.04c-.18-.45-.41-.68-.69-.68H8.166a.675.675,0,0,0-.17.03,4.022,4.022,0,0,0-.78.52,2.928,2.928,0,0,0-.64.7l-2.2-.63a6,6,0,0,1,.66-.86c1.29-1.29,2.42-1.94,3.37-1.94h2.83a2.3,2.3,0,0,1,1.51.51,2.834,2.834,0,0,1,.54.6A4.8,4.8,0,0,1,13.746,7.5Z" />
    <polygon
        points="23.319 5.728 22.169 11.318 20.449 11.318 21.139 7.708 21.239 7.168 20.769 7.448 19.119 8.428 17.839 7.308 17.519 7.028 17.429 7.438 16.569 11.318 14.949 11.318 16.049 5.728 17.989 5.728 19.309 7.128 19.469 7.288 19.649 7.148 21.469 5.728 23.319 5.728" />
</svg>