<svg width="200" height="200" viewBox="0 0 26 26" version="1.1" xmlns="http://www.w3.org/2000/svg">
    <polygon fill="#16131b"
        points="25.499 23.365 25.499 23.635 25.469 23.665 12.879 13.035 12.679 12.875 0.249 2.385 0.249 2.115 0.279 2.085 12.879 12.715 13.069 12.875 25.499 23.365" />
    <polygon fill="#16131b"
        points="25.499 2.115 25.499 2.385 13.069 12.875 12.879 13.035 0.279 23.665 0.249 23.635 0.249 23.365 12.679 12.875 12.879 12.715 25.469 2.085 25.499 2.115" />
    <path fill="#777996"
        d="M23.008,5.772l-1.147,5.59H20.137l.693-3.613.105-.546-.478.284-1.644.977-1.284-1.12-.318-.278-.09.412-.857,3.884H14.639l1.1-5.59h1.938L19,7.164l.156.164.178-.139,1.823-1.417h1.847m.307-.25h-2.24l-1.89,1.47-1.4-1.47h-2.25l-1.2,6.09h2.13l.9-4.08,1.42,1.24,1.8-1.07-.75,3.91h2.23l1.25-6.09Z" />
    <path fill="#d2cbe1"
        d="M11.93,20.2H2.435l.821-4.277A3.814,3.814,0,0,1,5.63,13.213l5.255-2.471a.527.527,0,0,0,.341-.349l.286-1.577,0-.12c-.1-.233-.25-.5-.451-.5H8.539a.287.287,0,0,0-.082.018,3.868,3.868,0,0,0-.716.482,2.533,2.533,0,0,0-.629.708l-.049.086-2.7-.766.079-.139a6.019,6.019,0,0,1,.785-1.054C6.565,6.2,7.757,5.522,8.779,5.522h2.592a2.562,2.562,0,0,1,1.663.556,3.663,3.663,0,0,1,.584.645,5.254,5.254,0,0,1,.481.715,2.217,2.217,0,0,1,.154,1.547l-.287,1.533a3.81,3.81,0,0,1-2.35,2.682L6.408,15.648c-.247.123-.385.262-.41.411l-.284,1.487h6.72Zm-9.192-.25h8.985l.409-2.15H5.411l.341-1.781a.879.879,0,0,1,.547-.592l5.21-2.449a3.573,3.573,0,0,0,2.211-2.5l.289-1.54a1.975,1.975,0,0,0-.134-1.38,4.922,4.922,0,0,0-.456-.676,3.542,3.542,0,0,0-.541-.6,2.321,2.321,0,0,0-1.507-.5H8.779c-.953,0-2.086.65-3.368,1.931a6.145,6.145,0,0,0-.666.868l2.2.625a2.919,2.919,0,0,1,.639-.7,3.975,3.975,0,0,1,.782-.52.538.538,0,0,1,.173-.035h2.52c.279,0,.511.228.692.678l.009.047v.168l-.29,1.606a.764.764,0,0,1-.482.525L5.736,13.44A3.58,3.58,0,0,0,3.5,15.967Z" />
    <path
        d="M14.008,8.936l-.29,1.54a3.572,3.572,0,0,1-2.21,2.5L6.3,15.426a.87.87,0,0,0-.55.59l-.34,1.78h6.72l-.41,2.15H2.738l.76-3.97a3.6,3.6,0,0,1,2.24-2.53l5.25-2.47a.767.767,0,0,0,.48-.53l.29-1.6v-.17l-.01-.05c-.18-.45-.41-.68-.69-.68H8.538a.412.412,0,0,0-.17.04,3.886,3.886,0,0,0-.79.52,3.143,3.143,0,0,0-.64.69l-2.19-.62a5.55,5.55,0,0,1,.66-.87c1.28-1.28,2.42-1.93,3.37-1.93h2.59a2.347,2.347,0,0,1,1.51.5,3.937,3.937,0,0,1,.54.6,5.4,5.4,0,0,1,.46.68A2.024,2.024,0,0,1,14.008,8.936Z" />
    <polygon
        points="23.009 5.772 21.859 11.362 20.139 11.362 20.829 7.752 20.939 7.202 20.459 7.482 18.809 8.462 17.529 7.342 17.209 7.062 17.119 7.482 16.259 11.362 14.639 11.362 15.739 5.772 17.679 5.772 18.999 7.162 19.159 7.332 19.339 7.192 21.159 5.772 23.009 5.772" />
</svg>