<svg width="200" height="200" viewBox="0 0 26 26" version="1.1" xmlns="http://www.w3.org/2000/svg">
    <polygon fill="#16131b"
        points="25.499 23.361 25.499 23.631 25.469 23.661 12.879 13.031 12.679 12.871 0.249 2.381 0.249 2.111 0.279 2.081 12.879 12.711 13.069 12.871 25.499 23.361" />
    <polygon fill="#16131b"
        points="25.499 2.111 25.499 2.381 13.069 12.871 12.879 13.031 0.279 23.661 0.249 23.631 0.249 23.361 12.679 12.871 12.879 12.711 25.469 2.081 25.499 2.111" />
    <path fill="#777996"
        d="M22.808,5.824l-1.147,5.59H19.938L20.63,7.8l.105-.546-.478.284-1.644.978L17.329,7.4l-.317-.278-.091.412-.857,3.884H14.439l1.1-5.59h1.937L18.8,7.216l.156.164.178-.139,1.823-1.417h1.847m.307-.25h-2.24l-1.89,1.47-1.4-1.47h-2.25l-1.2,6.09h2.13l.9-4.08,1.42,1.24,1.8-1.07-.75,3.91h2.23l1.25-6.09Z" />
    <path fill="#d2cbe1"
        d="M10.983,20.176H8.208l.552-2.855H2.329l.442-2.341.021-.026L10.7,5.574h3.114l-1.776,9.1H13.5L13,17.321H11.534Zm-2.472-.25h2.266l.551-2.855h1.464L13.2,14.92H11.736l1.775-9.1H10.818L3,15.091l-.373,1.98H9.063ZM9.47,14.92H5.621l5.018-6.027Zm-3.316-.25h3.11L10.208,9.8Z" />
    <path
        d="M13.521,5.831h-2.7l-7.81,9.26-.38,1.98h6.44l-.56,2.86h2.27l.55-2.86H12.8l.4-2.15h-1.46Zm-4.05,9.09H5.621l5.02-6.02Z" />
    <polygon
        points="22.811 5.824 21.67 11.414 19.94 11.414 20.63 7.794 20.74 7.254 20.26 7.534 18.62 8.514 17.33 7.394 17.021 7.114 16.92 7.524 16.071 11.414 14.44 11.414 15.541 5.824 17.48 5.824 18.811 7.214 18.96 7.374 19.141 7.234 20.96 5.824 22.811 5.824" />
</svg>