<svg width="200" height="200" viewBox="0 0 26 26" version="1.1" xmlns="http://www.w3.org/2000/svg">
    <polygon fill="#16131b"
        points="25.499 23.363 25.499 23.633 25.469 23.663 12.879 13.033 12.679 12.873 0.249 2.383 0.249 2.113 0.279 2.083 12.879 12.713 13.069 12.873 25.499 23.363" />
    <polygon fill="#16131b"
        points="25.499 2.113 25.499 2.383 13.069 12.873 12.879 13.033 0.279 23.663 0.249 23.633 0.249 23.363 12.679 12.873 12.879 12.713 25.469 2.083 25.499 2.113" />
    <path fill="#777996"
        d="M20.662,5.91,19.514,11.5H17.791l.693-3.613.1-.546-.478.284L16.466,8.6,15.183,7.482l-.318-.277-.091.412L13.917,11.5H12.292l1.1-5.59h1.937L16.657,7.3l.156.164.179-.139L18.814,5.91Zm.306-.25h-2.24l-1.89,1.47-1.4-1.47h-2.25l-1.2,6.09h2.13l.9-4.08,1.42,1.24,1.8-1.07-.75,3.91h2.23l1.25-6.09Z" />
    <polygon
        points="20.662 5.91 19.522 11.5 17.792 11.5 18.492 7.88 18.592 7.34 18.112 7.62 16.472 8.6 15.182 7.48 14.872 7.2 14.782 7.61 13.922 11.5 12.292 11.5 13.402 5.91 15.332 5.91 16.662 7.3 16.822 7.46 16.992 7.33 18.822 5.91 20.662 5.91" />
    <path fill="#d2cbe1"
        d="M8.622,20.21h-2.8l.03-.149,2.3-11.779H5.294l.531-2.674h5.63Zm-2.495-.25H8.416l2.736-14.1H6.03L5.6,8.032H8.455l-.029.149Z" />
    <polygon points="6.03 5.858 11.152 5.858 8.416 19.96 6.127 19.96 8.455 8.032 5.599 8.032 6.03 5.858" />
</svg>