<svg width="200" height="200" viewBox="0 0 26 26" version="1.1" xmlns="http://www.w3.org/2000/svg">
    <path fill="#F04B36" fill-rule="nonzero"
        d="M12.9995392,15.8164341 C12.9793969,15.8167038 12.9595894,15.8109803 12.9423993,15.7999133 C12.9065106,15.7785432 12.8843377,15.7384609 12.8843377,15.69502 L12.8843377,4.12081318 C12.8845935,4.06642114 12.9191472,4.01884648 12.9689024,4.00438189 C13.0186575,3.98991729 13.0714697,4.01209332 13.0981517,4.05865415 L17.9826943,12.5919243 C17.9990656,12.6194527 18.0040919,12.6528205 17.996615,12.6843385 C17.9891381,12.7158565 17.9698029,12.742806 17.943065,12.7589767 L13.0585224,15.7989421 C13.0408576,15.8106066 13.0203838,15.8166749 12.9995392,15.8164341 L12.9995392,15.8164341 Z M13.1147407,4.55786891 L13.1147407,15.484262 L17.7227997,12.6142627 L13.1147407,4.55786891 Z">
    </path>
    <path fill="#F04B36" fill-rule="nonzero"
        d="M12.9995392,15.8164341 C12.9790074,15.8164341 12.9588775,15.8104288 12.9414776,15.7989421 L8.05693503,12.7589767 C8.03019711,12.742806 8.01086192,12.7158565 8.00338501,12.6843385 C7.9959081,12.6528205 8.00093441,12.6194527 8.01730572,12.5919243 L12.9018483,4.05865415 C12.9288761,4.01305088 12.9811478,3.99161457 13.0303159,4.00597039 C13.0794841,4.0203262 13.1138354,4.06705419 13.1147407,4.12081318 L13.1147407,15.69502 C13.1147407,15.7384609 13.0925678,15.7785432 13.0566791,15.7999133 C13.0394889,15.8109803 13.0196815,15.8167038 12.9995392,15.8164341 Z M8.27812186,12.611349 L12.8861809,15.4813483 L12.8861809,4.55786891 L8.27812186,12.611349 Z">
    </path>
    <path fill="#F04B36" fill-rule="nonzero"
        d="M12.9995392,20.998934 C12.9879044,21.0003553 12.9761527,21.0003553 12.9645179,20.998934 C12.9166419,20.9825109 12.8842628,20.9354452 12.8843355,20.8823858 L12.8843355,16.6681974 C12.8840794,16.6251963 12.9059481,16.5854229 12.9414776,16.5642752 L17.8260203,13.5262523 C17.8726472,13.497428 17.9320209,13.5066463 17.9687787,13.5484169 C18.0055365,13.5901875 18.0097908,13.6532744 17.9790078,13.7001034 L13.0944652,20.9484298 C13.0724261,20.9804403 13.0370662,20.9992531 12.9995392,20.998934 L12.9995392,20.998934 Z M13.1147407,16.7381263 L13.1147407,20.4968055 L17.4758078,14.0274096 L13.1147407,16.7381263 Z">
    </path>
    <path fill="#F04B36" fill-rule="nonzero"
        d="M12.9995392,20.998934 C12.962988,20.998325 12.9288427,20.9796134 12.907378,20.9484298 L8.02283539,13.7001034 C7.99076902,13.6538855 7.99464798,13.5901157 8.03205151,13.5485908 C8.06878022,13.5067127 8.12821598,13.4974183 8.17490134,13.5262523 L13.059444,16.5642752 C13.0949735,16.5854229 13.1168423,16.6251963 13.1165862,16.6681974 L13.1165862,20.8775296 C13.1166589,20.930589 13.0842797,20.9776547 13.0364037,20.9940778 C13.02435,20.9972783 13.0119695,20.998934 12.9995392,20.998934 L12.9995392,20.998934 Z M8.52603544,14.0274096 L12.8843377,20.4997192 L12.8843377,16.74104 L8.52603544,14.0274096 Z">
    </path>
    <path fill="#F04B36" fill-rule="nonzero"
        d="M12.9995392,15.8164341 C12.9793969,15.8167038 12.9595894,15.8109803 12.9423993,15.7999133 C12.9065106,15.7785432 12.8843323,15.7384609 12.8843323,15.69502 L12.8843323,10.3172921 C12.8839546,10.2760176 12.903817,10.2374588 12.9368696,10.2153124 C12.9700551,10.1931801 13.0115161,10.1899031 13.047463,10.2065713 L17.9320056,12.5443338 C17.9709254,12.5631149 17.9967547,12.6030893 17.9990756,12.6481338 C18.0013965,12.6931784 17.9798263,12.735865 17.943065,12.7589767 L13.0585224,15.7989421 C13.0408576,15.8106066 13.0203838,15.8166749 12.9995392,15.8164341 Z M13.1147407,10.5057117 L13.1147407,15.484262 L17.6306386,12.6676807 L13.1147407,10.5057117 Z">
    </path>
    <path fill="#F04B36" fill-rule="nonzero"
        d="M12.9995392,15.8164505 C12.9790074,15.8164505 12.9588775,15.8104288 12.9414776,15.7989421 L8.05693503,12.7589767 C8.02017372,12.735865 7.99860353,12.6931784 8.00092442,12.6481338 C8.00324531,12.6030893 8.02907456,12.5631149 8.06799437,12.5443338 L12.952537,10.2065713 C12.9883943,10.1893628 13.0301099,10.1926599 13.0631304,10.2153124 C13.096183,10.2374588 13.1160454,10.2760176 13.1156677,10.3172921 L13.1156677,15.69502 C13.1156677,15.7384609 13.0934894,15.7785432 13.0576007,15.7999133 C13.0401447,15.8111585 13.0199935,15.8168889 12.9995392,15.8164505 Z M8.36843982,12.6676807 L12.8843377,15.484262 L12.8843377,10.5057117 L8.36843982,12.6676807 Z">
    </path>
</svg>