<svg width="200" height="200" viewBox="0 0 64 64" version="1.1" xmlns="http://www.w3.org/2000/svg">
    <path fill="#fff" fill-rule="nonzero"
        d="M34,11 C35.6568542,11 37,12.3431458 37,14 C37,15.6568542 35.6568542,17 34,17 L33.971,16.999 L33.58,23.642 L37.1818544,23.9690043 C37.6023145,22.8200314 38.705393,22 40,22 C41.6568542,22 43,23.3431458 43,25 C43,25.6418367 42.7984404,26.2365965 42.4551651,26.7244357 L43.5517353,27.836534 C44.2283357,27.3121368 45.0777161,27 46,27 C46.3716275,27 46.7314181,27.0506794 47.0728378,27.145504 L47.9353782,23.6934071 C47.3733942,23.3393518 47,22.7132814 47,22 C47,20.8954305 47.8954305,20 49,20 C50.1045695,20 51,20.8954305 51,22 C51,23.1045695 50.1045695,24 49,24 L48.891,23.996 L48.0060504,27.5386358 C49.1983157,28.2311117 50,29.5219342 50,31 C50,33.209139 48.209139,35 46,35 C43.790861,35 42,33.209139 42,31 C42,30.0736452 42.3148984,29.2208389 42.8434903,28.542786 L41.7511894,27.4361203 C41.2584137,27.7909734 40.6536173,28 40,28 C38.3431458,28 37,26.6568542 37,25 L37.001,24.956 L33.522,24.64 L33.03,33.001 L33.1996403,33.0048953 C35.3160315,33.1089211 37,34.8578046 37,37 L36.998,37.075 L48.1923402,38.9407928 C48.6204265,37.8066316 49.7160138,37 51,37 C52.6568542,37 54,38.3431458 54,40 C54,41.6568542 52.6568542,43 51,43 C49.3431458,43 48,41.6568542 48,40 L48.002,39.924 L36.8561535,38.0668519 C36.389294,39.7580571 34.8396827,41 33,41 L33,46 C34.6568542,46 36,47.3431458 36,49 C36,50.6568542 34.6568542,52 33,52 C31.3431458,52 30,50.6568542 30,49 C30,47.6937479 30.8348501,46.5824856 32.0000889,46.1706743 L32.0002435,40.8740452 C30.2748927,40.4300871 29,38.8639271 29,37 C29,36.0759068 29.3133627,35.2250035 29.8396226,34.5477553 L29.0151089,33.723607 C28.7175469,33.8992329 28.3705412,34 28,34 C26.8954305,34 26,33.1045695 26,32 C26,30.8954305 26.8954305,30 28,30 C29.1045695,30 30,30.8954305 30,32 C30,32.3705412 29.8992329,32.7175469 29.723607,33.0151089 L30.5477553,33.8396226 C30.9776653,33.5055584 31.477551,33.2572827 32.021714,33.120494 L32.525,24.549 L26.7194632,24.0220973 C26.370619,24.6076916 25.7311238,25 25,25 C24.6219899,25 24.2684736,24.8951297 23.9669579,24.7128959 L21.0691449,28.57606 C22.2265131,29.2769786 23,30.5481605 23,32 C23,32.9525517 22.6670393,33.8273363 22.1111541,34.5143177 L25.7771996,40.0122704 C25.8503491,40.0041626 25.9246884,40 26,40 C27.1045695,40 28,40.8954305 28,42 C28,43.1045695 27.1045695,44 26,44 C24.8954305,44 24,43.1045695 24,42 C24,41.3362894 24.3232982,40.7480891 24.8210046,40.3842893 L21.3769608,35.2174698 C20.7124233,35.7092225 19.890169,36 19,36 C18.3353456,36 17.7085539,35.8378909 17.1570063,35.5510541 L16.8535534,35.8535534 L15.9702966,36.7376575 C16.6012613,37.2876327 17,38.0972511 17,39 C17,40.6568542 15.6568542,42 14,42 C12.3431458,42 11,40.6568542 11,39 C11,37.3431458 12.3431458,36 14,36 C14.3842476,36 14.7516226,36.0722398 15.0892847,36.2038791 L16.3217913,34.9711048 C15.5101613,34.2390195 15,33.179087 15,32 C15,31.3349472 15.1623036,30.7078023 15.4494619,30.1560144 L14.5531437,29.2601601 C14.1864429,29.7115638 13.6269054,30 13,30 C11.8954305,30 11,29.1045695 11,28 C11,26.8954305 11.8954305,26 13,26 C14.1045695,26 15,26.8954305 15,28 C15,28.0928499 14.9936728,28.1842219 14.9814262,28.2737086 L16.0288952,29.3217913 C16.7609805,28.5101613 17.820913,28 19,28 C19.3922533,28 19.7713195,28.0564611 20.1295148,28.1616995 L23.2600943,23.9869737 C23.0945471,23.695763 23,23.3589228 23,23 C23,22.6290439 23.1009929,22.281676 23.2769833,21.9838916 L20.0161084,18.7230167 C19.718324,18.8990071 19.3709561,19 19,19 C17.8954305,19 17,18.1045695 17,17 C17,15.8954305 17.8954305,15 19,15 C20.1045695,15 21,15.8954305 21,17 C21,17.3709561 20.8990071,17.718324 20.7230167,18.0161084 L23.9838916,21.2769833 C24.281676,21.1009929 24.6290439,21 25,21 C26.1045695,21 27,21.8954305 27,23 L26.998,23.043 L32.583,23.551 L32.9791122,16.8218238 C31.8248437,16.4041478 31,15.2984002 31,14 C31,12.3431458 32.3431458,11 34,11 Z M33,47 C31.8954305,47 31,47.8954305 31,49 C31,50.1045695 31.8954305,51 33,51 C34.1045695,51 35,50.1045695 35,49 C35,47.8954305 34.1045695,47 33,47 Z M26,41 C25.4477153,41 25,41.4477153 25,42 C25,42.5522847 25.4477153,43 26,43 C26.5522847,43 27,42.5522847 27,42 C27,41.4477153 26.5522847,41 26,41 Z M51,38 C49.8954305,38 49,38.8954305 49,40 C49,41.1045695 49.8954305,42 51,42 C52.1045695,42 53,41.1045695 53,40 C53,38.8954305 52.1045695,38 51,38 Z M14,37 C12.8954305,37 12,37.8954305 12,39 C12,40.1045695 12.8954305,41 14,41 C15.1045695,41 16,40.1045695 16,39 C16,37.8954305 15.1045695,37 14,37 Z M33,34 L32.971,34.001 L32.9697762,34.0284982 L32.7240429,34.0125227 C31.1965403,34.1518296 30,35.4361813 30,37 C30,38.6568542 31.3431458,40 33,40 C34.6568542,40 36,38.6568542 36,37 C36,35.3431458 34.6568542,34 33,34 Z M19,29 C17.3431458,29 16,30.3431458 16,32 C16,33.6568542 17.3431458,35 19,35 C19.6847849,35 20.315982,34.7705633 20.8209122,34.384369 L20.8066248,34.361325 L21.0151018,34.2224981 C21.6200787,33.6736447 22,32.88119 22,32 C22,30.3431458 20.6568542,29 19,29 Z M46,28 C44.3431458,28 43,29.3431458 43,31 C43,32.6568542 44.3431458,34 46,34 C47.6568542,34 49,32.6568542 49,31 C49,29.3431458 47.6568542,28 46,28 Z M28,31 C27.4477153,31 27,31.4477153 27,32 C27,32.5522847 27.4477153,33 28,33 C28.5522847,33 29,32.5522847 29,32 C29,31.4477153 28.5522847,31 28,31 Z M13,27 C12.4477153,27 12,27.4477153 12,28 C12,28.5522847 12.4477153,29 13,29 C13.351051,29 13.6598527,28.8191093 13.8382799,28.5454532 L13.7928932,28.5 L13.9325059,28.3618985 C13.9760903,28.2496733 14,28.1276288 14,28 C14,27.4477153 13.5522847,27 13,27 Z M40,23 C38.8954305,23 38,23.8954305 38,25 C38,26.1045695 38.8954305,27 40,27 C41.1045695,27 42,26.1045695 42,25 C42,23.8954305 41.1045695,23 40,23 Z M25,22 C24.4477153,22 24,22.4477153 24,23 C24,23.5522847 24.4477153,24 25,24 C25.5522847,24 26,23.5522847 26,23 C26,22.4477153 25.5522847,22 25,22 Z M49,21 C48.4477153,21 48,21.4477153 48,22 C48,22.5522847 48.4477153,23 49,23 C49.5522847,23 50,22.5522847 50,22 C50,21.4477153 49.5522847,21 49,21 Z M19,16 C18.4477153,16 18,16.4477153 18,17 C18,17.5522847 18.4477153,18 19,18 C19.5522847,18 20,17.5522847 20,17 C20,16.4477153 19.5522847,16 19,16 Z M34,12 C32.8954305,12 32,12.8954305 32,14 C32,15.1045695 32.8954305,16 34,16 C35.1045695,16 36,15.1045695 36,14 C36,12.8954305 35.1045695,12 34,12 Z">
    </path>
</svg>