<?xml version="1.0" encoding="UTF-8"?>
<!-- Generator: Adobe Illustrator 24.3.0, SVG Export Plug-In . SVG Version: 6.00 Build 0)  -->
<svg version="1.1" viewBox="0 0 200 200" xml:space="preserve" xmlns="http://www.w3.org/2000/svg">
<style type="text/css">
	.st0{fill:#FFFFFF;}
</style>
<g transform="matrix(.52918 0 0 .52918 20 20)">
	
		<path class="st0" d="m141.73 283.46c-19.13 0-37.69-3.75-55.17-11.14-16.88-7.14-32.03-17.36-45.05-30.37-13.01-13.01-23.23-28.17-30.37-45.05-7.39-17.48-11.14-36.04-11.14-55.17s3.75-37.69 11.14-55.17c7.14-16.88 17.36-32.03 30.37-45.05 13.02-13.01 28.17-23.23 45.05-30.37 17.48-7.39 36.04-11.14 55.17-11.14s37.69 3.75 55.17 11.14c16.88 7.14 32.03 17.36 45.05 30.37 13.01 13.01 23.23 28.17 30.37 45.05 7.39 17.48 11.14 36.04 11.14 55.17s-3.75 37.69-11.14 55.17c-7.14 16.88-17.36 32.03-30.37 45.05-13.01 13.01-28.17 23.23-45.05 30.37-17.48 7.4-36.04 11.14-55.17 11.14z"/>
	
	
		<circle cx="141.73" cy="141.73" r="134.22"/>
	
	
		<polygon class="st0" points="205.57 141.67 145.03 116.52 145.03 178.36"/>
		<polygon class="st0" points="202.95 62.37 176.83 88.5 145.03 36.66 145.03 109.54 205.02 134.47 190.68 111.09 221.17 80.6"/>
		<polygon class="st0" points="78.05 141.67 138.59 178.36 138.59 116.52"/>
		<polygon class="st0" points="80.67 62.37 62.45 80.6 92.94 111.08 78.6 134.47 138.59 109.54 138.59 36.66 106.8 88.5"/>
		<polygon class="st0" points="195.37 236.25 213.59 218.03 184.79 189.23 204.89 160.92 145.03 197.2 145.03 245.25 169.66 210.54"/>
		<polygon class="st0" points="88.25 236.25 113.96 210.55 138.59 245.24 138.59 197.2 78.73 160.92 98.83 189.23 70.03 218.03"/>
	
</g>
</svg>
