<svg width="200" height="200" viewBox="0 0 26 26" version="1.1" xmlns="http://www.w3.org/2000/svg">
    <defs>
        <linearGradient id="gradient-token-obsidian-sith-a" x1="13.053" y1="4.189" x2="13.053" y2="12.22"
            gradientUnits="userSpaceOnUse">
            <stop offset="0.065" stop-color="#050305" />
            <stop offset="0.331" stop-color="#060407" />
            <stop offset="0.405" stop-color="#151221" />
            <stop offset="0.485" stop-color="#231f39" />
            <stop offset="0.653" stop-color="#595593" />
            <stop offset="0.822" stop-color="#9a9bd1" />
            <stop offset="0.989" stop-color="#ededf6" />
        </linearGradient>
        <linearGradient id="gradient-token-obsidian-sith-b" href="#gradient-token-obsidian-sith-a" x1="19.617"
            y1="4.189" x2="19.617" y2="12.22" />
        <linearGradient id="gradient-token-obsidian-sith-c" href="#gradient-token-obsidian-sith-a" x1="13.053"
            y1="4.189" x2="13.053" y2="12.22" />

        <linearGradient id="gradient-token-obsidian-sith-d" href="#gradient-token-obsidian-sith-a" x1="13.053"
            y1="2.944" x2="13.053" y2="12.827" />
        <linearGradient id="gradient-token-obsidian-sith-e" x1="9.214" y1="19.258" x2="9.214" y2="19.268"
            gradientUnits="userSpaceOnUse">
            <stop offset="0" stop-color="#4d4d71" />
            <stop offset="0.067" stop-color="#668" />
            <stop offset="0.247" stop-color="#a3a4c2" />
            <stop offset="0.332" stop-color="#bbbcd8" />
            <stop offset="0.669" stop-color="#edeff8" />
            <stop offset="0.989" stop-color="#f9faff" />
        </linearGradient>
    </defs>
    <path fill="url(#gradient-token-obsidian-sith-a)"
        d="M13.054,4.465c-.271,0-.54.01-.8.032q-.321.026-.633.071h2.876c-.208-.03-.42-.054-.633-.071-.265-.022-.534-.032-.8-.032Zm4.162.919H8.892c-.091.041-.18.085-.269.131h8.862c-.089-.046-.178-.09-.269-.131Zm1.69,1.026H7.2c-.05.036-.1.074-.146.113H19.051c-.047-.039-.1-.077-.145-.113Zm1.077.971H6.125c-.063.066-.123.133-.183.2H20.166q-.09-.1-.183-.2Zm.808,1h-4.9l.458.258h4.615c-.055-.088-.113-.174-.171-.258Zm-10.573,0h-4.9q-.088.126-.171.258H9.76l.458-.258ZM8.387,9.411H4.712c-.042.086-.083.172-.121.258H7.928l.459-.258Zm13.429,1.03H19.553l.51.286H21.9c-.027-.1-.057-.192-.088-.286Zm-15.261,0H4.291c-.031.094-.06.19-.087.286H6.045l.51-.286Zm15.518,1h-.738l.457.257h.326c-.014-.086-.029-.172-.045-.257Zm-17.3,0H4.035c-.016.085-.032.171-.045.257h.326l.457-.257Z" />
    <path fill="url(#gradient-token-obsidian-sith-b)"
        d="M21.4,9.411H17.721l.459.258h3.337c-.039-.086-.079-.172-.122-.258Z" />
    <path fill="url(#gradient-token-obsidian-sith-c)"
        d="M13.055,11.269a1.832,1.832,0,0,1,1.124.368,2.294,2.294,0,0,1,.25.226,1.723,1.723,0,0,1,.426,1.1,1.625,1.625,0,0,1-.8,1.407,1.931,1.931,0,0,1-.542.228,1.831,1.831,0,0,1-.461.056,1.9,1.9,0,0,1-1-.28,1.683,1.683,0,0,1-.8-1.411,1.627,1.627,0,0,1,.417-1.092,2.907,2.907,0,0,1,.263-.235,1.838,1.838,0,0,1,1.125-.369m2.05,1.7a1.915,1.915,0,0,0-.49-1.269,2.456,2.456,0,0,0-.281-.255,2.1,2.1,0,0,0-1.279-.422h0a2.084,2.084,0,0,0-1.278.422,3.167,3.167,0,0,0-.287.255A1.885,1.885,0,0,0,11,12.965a1.925,1.925,0,0,0,.918,1.621,2.151,2.151,0,0,0,1.137.32,2.078,2.078,0,0,0,.524-.064,2.159,2.159,0,0,0,.608-.256A1.925,1.925,0,0,0,15.105,12.965Z" />
    <path fill="url(#gradient-token-obsidian-sith-d)"
        d="M22.007,14.585h-.866l-.458.257h1.261c.022-.085.044-.171.063-.257Zm-17.042,0H4.1c.019.086.04.172.062.257H5.423l-.458-.257ZM21.7,15.613H19.312l-.407.229h2.7c.031-.076.061-.151.09-.229Zm-14.9,0H4.407c.028.078.058.153.09.229H7.2L6.8,15.613Zm14.526.857H17.786l-.915.515H21.03c.1-.169.2-.34.291-.515Zm-13,0H4.785c.091.175.187.346.291.515H9.235L8.32,16.47ZM20.5,17.756H5.608a8.227,8.227,0,0,0,.539.628H19.959c.19-.2.371-.41.54-.628Zm-1.2,1.256H6.805a8.967,8.967,0,0,0,.993.742H18.309a9.158,9.158,0,0,0,.993-.742Zm-1.84,1.228H8.644a9.561,9.561,0,0,0,2.5.857h3.82a9.549,9.549,0,0,0,2.5-.857Z" />
    <polygon fill="url(#gradient-token-obsidian-sith-e)"
        points="9.224 19.258 9.204 19.258 9.214 19.268 9.224 19.258 9.224 19.258" />
</svg>