<svg width="200" height="200" viewBox="0 0 26 26" version="1.1" xmlns="http://www.w3.org/2000/svg">
    <path fill="#29296e"
        d="M13.13,22.791A9.662,9.662,0,1,1,22.8,13.129,9.677,9.677,0,0,1,13.13,22.791Zm0-19.074a9.412,9.412,0,1,0,9.421,9.412A9.427,9.427,0,0,0,13.13,3.717Z" />
    <path fill="#fafafa"
        d="M17.678,10.781a.235.235,0,0,1-.225-.163h0l-.243-.749a.367.367,0,0,0-.24-.237L16.216,9.4a.236.236,0,0,1,0-.45l.751-.243a.367.367,0,0,0,.237-.24l.231-.753a.236.236,0,0,1,.224-.167h0a.235.235,0,0,1,.225.164l.243.748a.364.364,0,0,0,.241.237l.753.232a.236.236,0,0,1,0,.451l-.75.242a.364.364,0,0,0-.237.24l-.232.753a.236.236,0,0,1-.224.167Zm-.033-2.993-.206.752a.617.617,0,0,1-.4.4l-.75.244.753.205a.614.614,0,0,1,.405.4l.235.723.213-.727a.618.618,0,0,1,.4-.405l.75-.242-.753-.205a.618.618,0,0,1-.405-.4Z" />
    <path fill="#ff4f0a"
        d="M15.409,18.851a7.541,7.541,0,0,1-2.855-.6A10.8,10.8,0,0,1,10,16.753l-.118-.1c-.137-.111-.234-.189-.346-.291L9.12,16c-.154-.113-.307-.248-.457-.378-.124-.109-.247-.217-.373-.314A19.361,19.361,0,0,0,6.584,13.98a8.82,8.82,0,0,0-.963-.562c-.164-.07-.341-.146-.539-.209A2.63,2.63,0,0,0,4.44,13.1a.125.125,0,0,1-.05-.236,9.4,9.4,0,0,1,2.4-.9,3.2,3.2,0,0,1,1.851.16,4.746,4.746,0,0,1,1.376.922c.058.051.116.106.174.16s.113.106.169.157l.374.386c.337.337.7.654,1.007.919A10.885,10.885,0,0,0,14.2,16.249a7.225,7.225,0,0,0,1.557.523,5.326,5.326,0,0,0,1.785.076,4.492,4.492,0,0,0,1.717-.581,3.89,3.89,0,0,0,.676-.491,6.161,6.161,0,0,0,.557-.581,4.862,4.862,0,0,0,.717-1.288,3.9,3.9,0,0,0,.163-.462.122.122,0,0,1,.15-.086.124.124,0,0,1,.092.147,7.367,7.367,0,0,1-.594,1.745,6.71,6.71,0,0,1-1.913,2.365,5.864,5.864,0,0,1-3.24,1.217Q15.64,18.851,15.409,18.851ZM4.88,12.9c.09.018.18.04.274.068a5.764,5.764,0,0,1,.572.221,9.029,9.029,0,0,1,1,.581,19.6,19.6,0,0,1,1.723,1.341c.126.1.253.208.382.32.145.128.3.259.449.372l.427.375c.11.1.2.175.336.283l.117.095a10.555,10.555,0,0,0,2.492,1.464,7.075,7.075,0,0,0,3.2.562,5.614,5.614,0,0,0,3.1-1.166,6.377,6.377,0,0,0,1.73-2.063,6.356,6.356,0,0,1-.581.606,4.093,4.093,0,0,1-.717.521,4.7,4.7,0,0,1-1.811.613,5.548,5.548,0,0,1-1.867-.077,7.539,7.539,0,0,1-1.611-.541,11.132,11.132,0,0,1-2.515-1.617c-.313-.269-.679-.589-1.023-.933l-.369-.382c-.051-.045-.109-.1-.168-.154s-.112-.106-.168-.157a4.537,4.537,0,0,0-1.308-.878,2.979,2.979,0,0,0-1.707-.145A8.387,8.387,0,0,0,4.88,12.9Z" />
    <path fill="#fafafa"
        d="M16.9,17.142a6.076,6.076,0,0,1-1.192-.124,7.539,7.539,0,0,1-1.611-.541,11.132,11.132,0,0,1-2.515-1.617c-.313-.269-.679-.589-1.023-.933l-.369-.382c-.051-.045-.109-.1-.168-.154s-.112-.106-.168-.157a4.537,4.537,0,0,0-1.308-.878,2.979,2.979,0,0,0-1.707-.145,9.179,9.179,0,0,0-2.337.876.123.123,0,0,1-.128-.009.125.125,0,0,1-.052-.118,4.916,4.916,0,0,1,1.326-2.707A4.8,4.8,0,0,1,8.8,8.793a5.589,5.589,0,0,1,1.856.2,6.608,6.608,0,0,1,1.613.672c.238.132.479.293.691.435l.6.447.929.739c.659.521,1.2.94,1.705,1.288a6.829,6.829,0,0,0,1.419.785,2.679,2.679,0,0,0,1.626.033,7.786,7.786,0,0,0,1.081-.382l.043-.018c.2-.085.415-.181.633-.28.2-.092.408-.186.62-.277a.128.128,0,0,1,.124.014.123.123,0,0,1,.049.115l0,.032a3.162,3.162,0,0,1-.049.336,4.225,4.225,0,0,1-.3,1.074,5.165,5.165,0,0,1-.752,1.348,6.355,6.355,0,0,1-.586.612,4.093,4.093,0,0,1-.717.521,4.7,4.7,0,0,1-1.811.613A4.769,4.769,0,0,1,16.9,17.142ZM7.5,11.9a2.841,2.841,0,0,1,1.149.224,4.746,4.746,0,0,1,1.376.922c.058.051.116.106.174.16s.113.106.169.157l.374.386c.337.337.7.654,1.007.919A10.885,10.885,0,0,0,14.2,16.249a7.225,7.225,0,0,0,1.557.523,5.326,5.326,0,0,0,1.785.076,4.492,4.492,0,0,0,1.717-.581,3.89,3.89,0,0,0,.676-.491,6.161,6.161,0,0,0,.557-.581,4.862,4.862,0,0,0,.717-1.288,4.033,4.033,0,0,0,.285-1.024c.01-.046.018-.091.025-.136-.142.062-.281.125-.416.187-.221.1-.435.2-.642.284l-.044.018a8.006,8.006,0,0,1-1.116.394,2.91,2.91,0,0,1-1.774-.043,6.982,6.982,0,0,1-1.47-.812c-.512-.352-1.058-.774-1.721-1.3l-.925-.737-.594-.441c-.2-.136-.44-.294-.671-.422a6.37,6.37,0,0,0-1.556-.648,5.245,5.245,0,0,0-1.774-.186,4.538,4.538,0,0,0-2.985,1.381,4.72,4.72,0,0,0-1.223,2.332,8.933,8.933,0,0,1,2.185-.79A4.027,4.027,0,0,1,7.5,11.9Z" />
    <path fill="#fafafa" d="M8.267,17.941a.516.516,0,1,1-.516-.516.516.516,0,0,1,.516.516" />
    <path fill="#fafafa"
        d="M7.6,18.52a.641.641,0,1,1,.641-.641A.642.642,0,0,1,7.6,18.52Zm0-1.031a.391.391,0,1,0,.391.39A.391.391,0,0,0,7.6,17.489Z" />
</svg>