<?xml version="1.0" encoding="UTF-8"?>
<svg fill="none" version="1.1" viewBox="0 0 200 200" xmlns="http://www.w3.org/2000/svg">
 <g clip-rule="evenodd" fill-rule="evenodd" stroke-width=".94937">
  <path d="m25 100c0 41.422 33.578 75 74.999 75 41.421 0 75.001-33.579 75.001-75 0-41.422-33.58-75-75.001-75-41.421 0-74.999 33.578-74.999 75z" fill="#0c0c4f"/>
  <path d="m66.919 82.331 1.8514-5.7198c0.37633-1.1634 1.2945-2.0686 2.4621-2.4256l5.7478-1.7676c0.79557-0.24304 0.80202-1.3655 0.01291-1.6214l-5.7219-1.8515c-1.1612-0.37624-2.0665-1.2945-2.4255-2.4621l-1.7654-5.7477c-0.24294-0.79349-1.3654-0.80213-1.6213-0.01082l-1.8514 5.7199c-0.37633 1.1611-1.2945 2.0664-2.4621 2.4256l-5.7478 1.7654c-0.79557 0.24513-0.80421 1.3655-0.01291 1.6213l5.7219 1.8514c1.1612 0.37633 2.0665 1.2967 2.4255 2.4643l1.7654 5.7456c0.24294 0.79558 1.3654 0.80422 1.6213 0.01291z" fill="#fafafa"/>
  <path d="m157.77 79.002c-2.3696-2.6497-6.0674-4.1416-9.6627-4.7534-3.6237-0.58757-7.424-0.53308-11.001 0.10253-7.2389 1.2245-13.815 4.2219-19.551 7.9196-2.9786 1.8147-5.5188 3.9146-8.1504 6.0531-1.268 1.0815-2.424 2.2333-3.628 3.3686l-3.2898 3.2733c-3.5746 3.7365-7.0979 7.1398-10.507 9.9607-3.4228 2.8079-6.6228 4.9405-9.7764 6.4298-3.1516 1.497-6.5239 2.3773-10.919 2.5182-4.3568 0.15371-9.5115-0.63267-15.025-1.9306-5.5434-1.2922-11.364-3.1341-17.869-4.719 2.2697 6.2969 5.6877 11.861 10.076 16.949 4.4397 4.9985 9.9835 9.5536 17.105 12.55 7.019 3.0627 15.84 4.1621 24.087 2.5035 8.2694-1.5921 15.526-5.4181 21.392-9.8441 5.8809-4.4706 10.639-9.5633 14.65-14.858 1.107-1.4628 1.6927-2.2814 2.494-3.4248l2.2149-3.2806c1.5389-2.0292 2.9402-4.3396 4.463-6.3501 2.9867-4.2107 5.9316-8.4165 9.3532-12.291 1.7222-1.9653 3.5383-3.8452 5.682-5.6517 1.069-0.88178 2.2244-1.7448 3.5041-2.5221 1.2987-0.83849 2.6706-1.4948 4.3595-2.0022z" fill="#ec796b"/>
  <path d="m157.77 79.001c-2.5452-6.4235-7.2778-11.831-13.63-15.821-6.3133-3.9462-15.082-5.96-23.771-4.2433-4.2924 0.83023-8.4512 2.4286-12.101 4.5571-3.633 2.1201-6.8886 4.6722-9.707 7.4101-1.407 1.3736-2.6841 2.8064-3.9528 4.2473l-3.2884 4.1926-5.079 6.749c-6.475 8.6834-13.448 18.86-24.89 21.875-11.233 2.9603-16.105 0.33855-22.961-0.7445 1.2536 3.2365 2.8064 6.3797 4.9116 9.1448 2.0659 2.8211 4.5062 5.4704 7.54 7.7423 1.5331 1.0908 3.1518 2.1674 4.9495 3.0807 1.7897 0.88197 3.7195 1.6586 5.7795 2.2424 4.0975 1.1231 8.7105 1.5171 13.177 0.91235 4.4686-0.59621 8.7398-2.0117 12.473-3.8924 3.761-1.8636 7.0373-4.1326 9.9628-6.5269 5.8153-4.8295 10.339-10.166 14.16-15.559 1.9219-2.6968 3.6665-5.4445 5.2799-8.1929l1.899-3.2721c0.58054-0.9565 1.1677-1.9189 1.7637-2.8151 2.4066-3.601 4.7601-6.4883 7.6187-8.6556 2.8187-2.2233 6.7443-3.8659 11.99-4.2474 5.2234-0.38621 11.254 0.32716 17.877 1.8165z" fill="#fafafa"/>
  <path d="m129.51 132.37c0 4.7184 3.8269 8.5444 8.5443 8.5444 4.7184 0 8.5396-3.826 8.5396-8.5444 0-4.7175-3.8212-8.5444-8.5396-8.5444-4.7174 0-8.5443 3.8269-8.5443 8.5444z" fill="#ec796b"/>
 </g>
</svg>
