<svg width="200" height="200" viewBox="0 0 26 26" version="1.1" xmlns="http://www.w3.org/2000/svg">
    <path fill="#3976cd"
        d="M13.431,18.841H12.74c-.314-.06-.494-.248-.494-.493v-1a2.694,2.694,0,0,1-2.441-2.3v-.066a.437.437,0,0,1,.447-.447h.784a.466.466,0,0,1,.444.37c.109.55.388,1.1,1.629,1.1.822,0,1.4-.46,1.4-1.119,0-.589-.223-.875-1.6-1.121-2.1-.25-2.96-.967-2.96-2.473A2.456,2.456,0,0,1,12.2,8.932V7.98c.06-.314.249-.494.493-.494h.692c.314.061.493.249.493.494v.994a2.443,2.443,0,0,1,2.072,1.979l0,.068a.438.438,0,0,1-.448.448h-.737a.47.47,0,0,1-.441-.316c-.209-.627-.615-.882-1.4-.882-.811,0-1.257.332-1.257.935,0,.491.114.882,1.55,1.074,1.807.215,3.012.726,3.012,2.52a2.641,2.641,0,0,1-2.3,2.547v1C13.864,18.662,13.676,18.841,13.431,18.841Zm-3.18-4.054a.191.191,0,0,0-.2.2v.046a2.457,2.457,0,0,0,2.336,2.089l.106.016v1.213c0,.173.188.23.268.246l.667,0c.173,0,.23-.187.246-.268l0-1.187.105-.017a2.389,2.389,0,0,0,2.2-2.319c0-1.432-.731-2.027-2.793-2.272-1.307-.174-1.769-.521-1.769-1.322,0-.753.549-1.185,1.507-1.185a1.49,1.49,0,0,1,1.639,1.053.224.224,0,0,0,.2.145H15.5a.191.191,0,0,0,.2-.2v-.046A2.163,2.163,0,0,0,13.743,9.21L13.628,9.2V7.98c0-.173-.187-.23-.268-.246l-.667,0c-.173,0-.23.188-.246.269l0,1.144-.109.015A2.238,2.238,0,0,0,10.192,11.3c0,1.366.77,1.991,2.746,2.226,1.207.215,1.816.485,1.816,1.368a1.475,1.475,0,0,1-1.646,1.369c-1.1,0-1.7-.412-1.873-1.3a.209.209,0,0,0-.2-.175Z" />
    <path fill="#3976cd"
        d="M15.412,21.284a.479.479,0,0,1-.4-.494v-.645a.59.59,0,0,1,.345-.573A6.762,6.762,0,0,0,15.37,6.854a.735.735,0,0,1-.359-.579V5.63a.365.365,0,0,1,.058-.246.413.413,0,0,1,.216-.248.422.422,0,0,1,.359.009,8.527,8.527,0,0,1,5.463,5.516,8.4,8.4,0,0,1-5.45,10.564A.417.417,0,0,1,15.412,21.284ZM15.451,5.35a.139.139,0,0,0-.061.013.162.162,0,0,0-.087.113l-.009.034-.024.024c-.007.007-.009.013-.009.1v.645a.5.5,0,0,0,.22.357,6.981,6.981,0,0,1,4.149,9A6.933,6.933,0,0,1,15.455,19.8a.336.336,0,0,0-.194.344v.645a.229.229,0,0,0,.181.248.2.2,0,0,0,.069-.016l.048-.028a8.154,8.154,0,0,0,5.31-10.258A8.282,8.282,0,0,0,15.558,5.38l-.017-.007A.207.207,0,0,0,15.451,5.35ZM10.673,21.228a.449.449,0,0,1-.2-.05,8.414,8.414,0,0,1,0-16.029.417.417,0,0,1,.245-.059.48.48,0,0,1,.4.494v.645a.59.59,0,0,1-.345.573,6.763,6.763,0,0,0-.014,12.719l.027.013a.731.731,0,0,1,.332.519V20.7a.361.361,0,0,1-.059.246.41.41,0,0,1-.216.248A.4.4,0,0,1,10.673,21.228Zm.009-15.892a.22.22,0,0,0-.069.016l-.048.028a8.167,8.167,0,0,0,0,15.567.189.189,0,0,0,.168.017.159.159,0,0,0,.087-.112l.009-.034.024-.024c.008-.008.01-.014.01-.1v-.645a.5.5,0,0,0-.209-.3,6.988,6.988,0,0,1-4.161-9,6.933,6.933,0,0,1,4.175-4.174.336.336,0,0,0,.2-.344V5.584A.229.229,0,0,0,10.682,5.336Z" />
</svg>