<svg width="200" height="200" viewBox="0 0 26 26" version="1.1" xmlns="http://www.w3.org/2000/svg">
    <path fill="#5eaf95"
        d="M14.783,21.4H11.366a.125.125,0,0,1-.125-.125v-6.5C7.87,14.6,4.508,13.931,4.508,12.8S7.87,11,11.241,10.83V9.008h-4.6a.125.125,0,0,1-.125-.125V5.732a.125.125,0,0,1,.125-.125H19.512a.125.125,0,0,1,.125.125V8.883a.125.125,0,0,1-.125.125h-4.6V10.83c3.363.167,6.718.836,6.718,1.968s-3.355,1.8-6.719,1.967v6.5A.125.125,0,0,1,14.783,21.4Zm-3.292-.25h3.167v-6.5a.125.125,0,0,1,.119-.125c4.131-.19,6.6-1.025,6.6-1.723,0-.369-.667-.782-1.947-1.116.842.243,1.393.559,1.393.955,0,.961-3.24,1.446-6.021,1.571h-.009c-.05,0-.523.038-1.7.038-.873,0-1.5-.026-1.728-.038-2.789-.123-6.048-.608-6.048-1.572,0-.391.536-.7,1.359-.945-1.258.332-1.913.741-1.913,1.107,0,.688,2.318,1.526,6.614,1.724a.127.127,0,0,1,.119.125Zm-.249-9.827c-3.558.171-5.68.8-5.68,1.319s2.173,1.162,5.81,1.322c.228.012.849.038,1.716.038,1.093,0,1.571-.029,1.67-.036l.017,0c3.629-.161,5.8-.8,5.8-1.322s-2.116-1.147-5.667-1.318V13.5a.126.126,0,0,1-.114.124c-.1.009-.63.053-1.688.053-.914,0-1.567-.041-1.746-.053a.125.125,0,0,1-.116-.125Zm.25,2.061c.268.017.847.045,1.612.045.832,0,1.333-.027,1.552-.043V11.188a.127.127,0,0,1,.038-.09.125.125,0,0,1,.051-.029.124.124,0,0,1-.073-.064h0a.127.127,0,0,1-.012-.066V8.883a.125.125,0,0,1,.125-.125h4.6v-2.9H6.763v2.9h4.6a.125.125,0,0,1,.125.125v2.066a.125.125,0,0,1-.087.119.126.126,0,0,1,.088.119Z" />
</svg>