<svg width="200" height="200" viewBox="0 0 26 26" version="1.1" xmlns="http://www.w3.org/2000/svg">
    <path fill="#5a5565"
        d="M20.1,19.564l-.781-.78.08-.088a8.386,8.386,0,0,0,0-11.379l-.08-.088.652-.652V6.294l.217.235a9.6,9.6,0,0,1,0,12.94Zm-.436-.788.428.427A9.349,9.349,0,0,0,20.1,6.8l-.435.434A8.635,8.635,0,0,1,19.668,18.776Z" />
    <path fill="#5a5565"
        d="M18.941,6.854l-.088-.081a8.389,8.389,0,0,0-11.378,0l-.087.08-.8-.779.1-.089a9.6,9.6,0,0,1,12.94,0l.1.088ZM6.954,6.08l.44.43a8.635,8.635,0,0,1,11.539,0l.428-.428A9.347,9.347,0,0,0,6.954,6.08Z" />
    <path fill="#5a5565"
        d="M6.217,19.593l-.089-.1a9.6,9.6,0,0,1,0-12.94l.088-.1L7,7.241l-.08.089a8.387,8.387,0,0,0,0,11.372L7,18.789ZM6.224,6.822a9.348,9.348,0,0,0,0,12.406l.43-.445a8.635,8.635,0,0,1,0-11.533Z" />
    <path fill="#5a5565"
        d="M13.163,22.549a9.525,9.525,0,0,1-6.47-2.508l-.1-.088.781-.782.089.081a8.386,8.386,0,0,0,11.378,0l.088-.08.8.779-.1.09A9.525,9.525,0,0,1,13.163,22.549Zm-6.2-2.605a9.348,9.348,0,0,0,12.407,0l-.44-.429a8.633,8.633,0,0,1-11.539,0Z" />
    <path fill="#e99138"
        d="M12.723,17.951H11.617V16.52H9.875l.2-1.275.108,0c.2,0,.419.006.529,0l0-.01.1.007a.224.224,0,0,0,.129-.043.176.176,0,0,0,.061-.124V11.233a.314.314,0,0,0-.347-.252l-.093.011-.006-.014c-.107,0-.332,0-.536,0l-.127,0V9.816h1.737V8.408h1.1V9.78h.434V8.408h1.107v1.41c.87.1,1.967.376,2.08,1.561h0a1.474,1.474,0,0,1-.554,1.414,1.554,1.554,0,0,1,1.048,1.825c-.14,1.5-1.31,1.813-2.582,1.9v1.422H13.158v-1.4h-.435Zm-.856-.25h.606v-1.41h.935v1.4h.608V16.287l.117-.007c1.393-.085,2.346-.4,2.466-1.686a1.333,1.333,0,0,0-1.135-1.639l-.337-.081.311-.153a1.2,1.2,0,0,0,.667-1.318c-.077-.812-.684-1.228-1.968-1.347l-.113-.011V8.658h-.607V10.03h-.934V8.658h-.6v1.408H10.146v.664c.272-.005.416-.006.495,0a.565.565,0,0,1,.613.483v3.872a.428.428,0,0,1-.458.409h0c-.085.008-.234.006-.507,0l-.123.772h1.7Zm1.2-2.192c-.1,0-.191,0-.273,0l-.289,0V13.366h.125l.212,0a3.075,3.075,0,0,1,2.057.431.867.867,0,0,1,.26.643.838.838,0,0,1-.251.616A2.817,2.817,0,0,1,13.063,15.509Zm-.312-.253h.043c.49,0,1.524.022,1.934-.381a.586.586,0,0,0,.177-.438.615.615,0,0,0-.185-.464c-.4-.392-1.362-.372-1.876-.36l-.093,0Zm.261-2.5-.241,0-.269,0V10.791h.125c.048,0,.106,0,.171,0a2.5,2.5,0,0,1,1.713.371.833.833,0,0,1,.246.619.8.8,0,0,1-.238.593A2.261,2.261,0,0,1,13.012,12.761Zm-.26-.253h.023a2.452,2.452,0,0,0,1.569-.318.549.549,0,0,0,.163-.414.583.583,0,0,0-.171-.44,2.385,2.385,0,0,0-1.531-.3l-.053,0Z" />
    <path fill="#282139"
        d="M13.16,24.145h0a11.131,11.131,0,0,1-7.867-19,11.06,11.06,0,0,1,7.869-3.259h0a11.131,11.131,0,0,1,0,22.261Zm0-.25h0a10.881,10.881,0,0,0,0-21.761h0a10.881,10.881,0,0,0,0,21.761Zm.007-.621a10.266,10.266,0,0,1-.007-20.532h.012a10.266,10.266,0,0,1,0,20.532ZM13.156,2.867v.125a10.016,10.016,0,0,0,.007,20.032h.009a10.016,10.016,0,0,0,0-20.032Z" />
</svg>