<svg width="250" height="250" viewBox="0 0 250 250" version="1.1"  xmlns="http://www.w3.org/2000/svg">
    <path fill="#00A3FF" fill-rule="nonzero"
        d="M85.6114933,109.450707 C86.0280328,108.817033 86.9707368,108.859441 87.3286973,109.527955 L125.881575,181.527955 C126.238274,182.194115 125.755648,183 125,183 C112.358969,183 100.19573,178.196829 91.0713715,169.313254 C75.1294594,153.791933 72.4172635,129.556519 84.5560024,111.056404 L85.6114933,109.450707 Z M86.359,111.954 L86.2277205,112.154292 C74.6160553,129.851118 77.2095409,153.025771 92.4665533,167.880261 C100.774983,175.969439 111.714398,180.529743 123.184781,180.965551 L123.313,180.969 L86.359,111.954 Z">
    </path>
    <path fill="#00A3FF" fill-rule="nonzero"
        d="M86.1156152,110.466759 C85.6476655,109.580117 86.6302367,108.633111 87.4990318,109.133416 L125.499032,131.016136 C125.808978,131.194622 126,131.525054 126,131.882719 L126,182 C126,183.043363 124.602614,183.389493 124.115615,182.466759 L86.1156152,110.466759 Z M89.498,112.592 L124,177.963 L124,132.461 L89.498,112.592 Z">
    </path>
    <path fill="#00A3FF" fill-rule="nonzero"
        d="M162.671303,109.527955 C163.029263,108.859441 163.971967,108.817033 164.388507,109.450707 L165.444457,111.057103 C177.582737,129.556519 174.870541,153.791933 158.928626,169.313256 C149.80427,178.196829 137.641031,183 125,183 C124.244352,183 123.761726,182.194115 124.118425,181.527955 L162.671303,109.527955 Z M163.64,111.954 L126.686,180.969 L126.815219,180.965551 C138.084368,180.537389 148.841014,176.12818 157.093741,168.302748 L157.533444,167.880263 C172.790459,153.025771 175.383945,129.851118 163.772739,112.154991 L163.64,111.954 Z">
    </path>
    <path fill="#00A3FF" fill-rule="nonzero"
        d="M162.500968,109.133416 C163.369752,108.633117 164.352318,109.580095 163.884396,110.466737 C147.260362,141.96675 136.573064,162.216763 130.635208,173.46678 C128.556947,177.404306 127.220814,179.935581 126.478391,181.341865 C126.107146,182.045038 126.107146,182.045038 125.958548,182.326411 C125.88403,182.467463 125.88403,182.467463 125,183 C124.447715,183 124,182.552285 124,182 L124,131.882719 C124,131.525054 124.191022,131.194622 124.500968,131.016136 L162.500968,109.133416 Z M160.5,112.593 L126,132.46 L126,177.962 L126.079411,177.813466 C126.754158,176.535177 127.605546,174.922174 128.654112,172.93554 L128.866461,172.53322 C134.566786,161.733237 144.6442,142.638849 160.149142,113.259405 L160.5,112.593 Z">
    </path>
    <path fill="#00A3FF" fill-rule="nonzero"
        d="M124,84 C124,83.2356766 124.82268,82.7539069 125.489271,83.1278682 L158.489271,101.641059 C159.170481,102.023222 159.170182,103.003872 158.48874,103.385621 L125.48874,121.872429 C124.822157,122.245853 124,121.764054 124,121 L124,84 Z M126,85.707 L126,119.293 L155.954,102.512 L126,85.707 Z">
    </path>
    <path fill="#00A3FF" fill-rule="nonzero"
        d="M124.49923,83.1344198 C125.165896,82.7487286 126,83.2298041 126,84 L126,121 C126,121.769921 125.166431,122.251031 124.499765,121.865889 L92.4997646,103.379081 C91.8336495,102.994258 91.8333525,102.032846 92.4992296,101.647611 L124.49923,83.1344198 Z M124,85.733 L94.997,102.512 L124,119.267 L124,85.733 Z">
    </path>
    <path fill="#00A3FF" fill-rule="nonzero"
        d="M124.152936,51.4685089 C124.686431,50.6182517 126,50.9962301 126,52 L126,83.9275148 C126,84.2798242 125.81461,84.60614 125.511977,84.7865142 L93.5119766,103.858999 C92.6098645,104.396672 91.5947697,103.358087 92.1529361,102.468509 L124.152936,51.4685089 Z M124,55.475 L96.052,100.018 L124,83.359 L124,55.475 Z">
    </path>
    <path fill="#00A3FF" fill-rule="nonzero"
        d="M124,52 C124,51.0034938 125.298217,50.6201119 125.83957,51.4567487 L158.83957,102.456749 C159.410177,103.338596 158.409289,104.391305 157.499785,103.865901 L124.499785,84.8024219 C124.190505,84.6237567 124,84.2936975 124,83.9365206 L124,52 Z M126,55.385 L126,83.359 L154.904,100.057 L126,55.385 Z">
    </path>
</svg>