<svg width="250" height="250" viewBox="0 0 250 250" version="1.1" xmlns:xlink="http://www.w3.org/1999/xlink">
    <path fill="#00A3FF" fill-rule="nonzero"
        d="M86.4819849,110.127355 C86.6900005,109.808882 87.1633384,109.83011 87.3420106,110.165925 L125.421348,181.736145 C125.598541,182.069182 125.357178,182.471 124.979937,182.471 C112.618924,182.471 100.727109,177.744994 91.8071382,169.0049 C76.2293232,153.74112 73.5797424,129.913875 85.4394585,111.723468 L86.4819849,110.127355 Z M86.8562324,111.38178 L86.2769169,112.269969 C74.6781778,130.060091 77.2691095,153.359914 92.5070076,168.290629 C100.946594,176.560026 112.104593,181.158247 123.771311,181.455606 L124.142232,181.46178 L86.8562324,111.38178 Z">
    </path>
    <path fill="#00A3FF" fill-rule="nonzero"
        d="M86.4532538,110.635651 C86.2178012,110.193156 86.7074009,109.71801 87.1426439,109.966612 L125.224953,131.718484 C125.380786,131.807493 125.476965,131.97319 125.476965,132.152652 L125.476965,181.970257 C125.476965,182.491032 124.780193,182.66487 124.535563,182.205128 L86.4532538,110.635651 Z M88.1466556,111.69078 L124.476656,179.96678 L124.476656,132.44278 L88.1466556,111.69078 Z">
    </path>
    <path fill="#00A3FF" fill-rule="nonzero"
        d="M162.657989,110.165925 C162.836662,109.83011 163.309999,109.808882 163.518015,110.127355 L164.560769,111.723817 C176.420258,129.913875 173.770677,153.74112 158.192861,169.004901 C149.272891,177.744994 137.381076,182.471 125.020063,182.471 C124.642822,182.471 124.401459,182.069182 124.578652,181.736145 L162.657989,110.165925 Z M163.143063,111.38178 L125.857063,181.46178 L126.228689,181.455606 C137.694257,181.163373 148.668496,176.717307 157.054048,168.71508 L157.492991,168.29063 C172.730891,153.359914 175.321822,130.060091 163.723311,112.270318 L163.143063,111.38178 Z">
    </path>
    <path fill="#00A3FF" fill-rule="nonzero"
        d="M162.849182,109.966612 C163.28442,109.718013 163.774017,110.193145 163.538578,110.63564 C146.87854,141.947293 136.168096,162.076215 130.217382,173.258954 C128.134627,177.172923 126.795606,179.68905 126.051584,181.086909 L125.972097,181.236242 C125.678667,181.787508 125.668095,181.807363 125.53066,182.065483 C125.456092,182.205481 125.456092,182.205481 125.014861,182.470257 C124.738719,182.470257 124.514861,182.246399 124.514861,181.970257 L124.514861,132.152652 C124.514861,131.97319 124.61104,131.807493 124.766873,131.718484 L162.849182,109.966612 Z M161.842861,111.69278 L125.514861,132.44178 L125.514861,179.96578 L125.607492,179.792886 C126.363794,178.371845 127.510491,176.217074 129.121781,173.189106 L129.33459,172.789191 C135.16628,161.830123 145.569218,142.279137 161.663291,112.031217 L161.842861,111.69278 Z">
    </path>
    <path fill="#00A3FF" fill-rule="nonzero"
        d="M124.523035,83.5514516 C124.523035,83.1674027 124.938044,82.9267356 125.271373,83.1174837 L158.074174,101.888904 C158.409842,102.08099 158.409693,102.565113 158.073908,102.756992 L125.271107,121.501662 C124.937778,121.692138 124.523035,121.451454 124.523035,121.067542 L124.523035,83.5514516 Z M125.523035,84.4124516 L125.523035,120.205452 L156.818035,102.322452 L125.523035,84.4124516 Z">
    </path>
    <path fill="#00A3FF" fill-rule="nonzero"
        d="M124.781533,83.1173989 C125.114862,82.9268024 125.529723,83.1674786 125.529723,83.5514516 L125.529723,121.067542 C125.529723,121.451379 125.115127,121.692071 124.781799,121.501747 L91.9529912,102.757077 C91.6170079,102.565236 91.6168591,102.080866 91.9527245,101.888819 L124.781533,83.1173989 Z M124.528915,84.4134516 L93.2079145,102.322452 L124.528915,120.205452 L124.528915,84.4134516 Z">
    </path>
    <path fill="#00A3FF" fill-rule="nonzero"
        d="M124.610926,51.7268326 C124.882604,51.3102881 125.529723,51.5026686 125.529723,51.9999797 L125.529723,83.5105827 C125.529723,83.6897483 125.433859,83.8552192 125.278431,83.9443389 L92.4496224,102.767774 C91.9939306,103.029059 91.4951574,102.500847 91.7821179,102.060871 L124.610926,51.7268326 Z M124.528915,53.6819797 L93.7529145,100.86798 L124.528915,83.2209797 L124.528915,53.6819797 Z">
    </path>
    <path fill="#00A3FF" fill-rule="nonzero"
        d="M124.523035,51.971 C124.523035,51.4736221 125.170295,51.2812903 125.441902,51.6979608 L158.267738,102.055777 C158.554553,102.495777 158.055777,103.023837 157.600146,102.762563 L124.77431,83.9391277 C124.618892,83.8500054 124.523035,83.6845398 124.523035,83.5053813 L124.523035,51.971 Z M125.523035,53.652 L125.523035,83.216 L156.295035,100.862 L125.523035,53.652 Z">
    </path>
</svg>