<svg width="200" height="200" viewBox="0 0 26 26" version="1.1" xmlns="http://www.w3.org/2000/svg">
    <defs>
        <linearGradient id="gradient-token-obsidian-sith-a" x1="13.053" y1="4.189" x2="13.053" y2="12.22"
            gradientUnits="userSpaceOnUse">
            <stop offset="0.065" stop-color="#050305" />
            <stop offset="0.331" stop-color="#060407" />
            <stop offset="0.405" stop-color="#151221" />
            <stop offset="0.485" stop-color="#231f39" />
            <stop offset="0.653" stop-color="#595593" />
            <stop offset="0.822" stop-color="#9a9bd1" />
            <stop offset="0.989" stop-color="#ededf6" />
        </linearGradient>
        <linearGradient id="gradient-token-obsidian-sith-b" href="#gradient-token-obsidian-sith-a" x1="19.617"
            y1="4.189" x2="19.617" y2="12.22" />
        <linearGradient id="gradient-token-obsidian-sith-c" href="#gradient-token-obsidian-sith-a" x1="13.053"
            y1="4.189" x2="13.053" y2="12.22" />
    </defs>
    <path fill="url(#gradient-token-obsidian-sith-a)"
        d="M4.033,11.438a2.336,2.336,0,0,0-.04.26h.32l.46-.26Zm18.04,0h-.74l.46.26h.32C22.1,11.608,22.083,11.528,22.073,11.438Zm-17.78-1c-.03.1-.06.19-.09.29h1.84l.51-.29Zm17.52,0h-2.26l.51.29H21.9C21.873,10.628,21.843,10.538,21.813,10.438Zm-17.1-1.03c-.04.09-.09.17-.12.26h3.33l.46-.26Zm4.53-1.03.26.26h.26l.45-.26Zm-1.7,0H5.313c-.06.09-.11.17-.17.26H7.8Zm8.34,0,.46.26h.13l.26-.26Zm4.91,0h-2.37l-.26.26h2.8C20.9,8.548,20.843,8.468,20.793,8.378Zm-12.55-1,.2.2h9.08l.2-.2Zm11.74,0h-.56l-.2.2h.94C20.1,7.518,20.043,7.448,19.983,7.378Zm-13.44,0h-.42c-.06.07-.12.14-.18.2h.8Zm.73-.97.12.12h11.18l.12-.12Zm9.94-1.02H8.893c-.09.04-.18.08-.27.13h8.86C17.393,5.468,17.3,5.428,17.213,5.388Zm-3.36-.89c-.26-.02-.53-.03-.8-.03s-.54.01-.81.03c-.21.02-.42.04-.63.07h2.88C14.283,4.538,14.073,4.518,13.853,4.5Z" />
    <path fill="url(#gradient-token-obsidian-sith-b)"
        d="M21.394,9.411H17.719l.459.258h3.337c-.038-.086-.079-.172-.121-.258Z" />
    <path fill="url(#gradient-token-obsidian-sith-c)"
        d="M8.643,20.238a9.475,9.475,0,0,0,2.5.86h3.82a9.475,9.475,0,0,0,2.5-.86Zm-.85-1.23-.44.44c.14.11.29.21.44.31H18.3c.13-.08.25-.17.37-.26l-.49-.49H7.793m10.84-1.25.25.25.13.13.25.25h.69a7.841,7.841,0,0,0,.54-.63Zm-11.29,0H5.6c.17.22.35.42.54.63h.57l.25-.25.13-.13Zm9.59,0H9.043l-.63.63h9.15Zm-8.61-1.29H4.783c.09.18.19.35.29.52h3.04l.41-.41Zm9.46,0-.28.16.36.36h3.17c.1-.17.2-.34.29-.52Zm-10.99-.86H4.4c.03.08.06.16.09.23H7.2Zm12.52,0-.41.23h2.71c.03-.07.06-.15.09-.23Zm-14.35-1.02H4.1a2.268,2.268,0,0,0,.06.25h1.26Zm16.18,0-.46.25h1.26c.02-.08.04-.17.06-.25Z" />
    <polygon fill="#fff"
        points="13.602 12.995 15.984 15.376 14.82 15.376 13.021 13.577 11.232 15.358 10.069 15.358 12.439 12.995 10.148 10.728 11.312 10.728 13.021 12.413 14.676 10.734 15.84 10.734 13.602 12.995" />
</svg>